<?xml version="1.0" ?><svg height="50px" version="1.1" viewBox="0 0 58 57" width="58px" xmlns="http://www.w3.org/2000/svg" xmlns:sketch="http://www.bohemiancoding.com/sketch/ns" xmlns:xlink="http://www.w3.org/1999/xlink"><title/><desc/><defs/><g fill="none" fill-rule="evenodd" id="flat" stroke="none" stroke-width="1"><g id="etsy"><path d="M28.6153846,57 C44.4192259,57 57.2307692,44.2401161 57.2307692,28.5 C57.2307692,12.7598839 44.4192259,0 28.6153846,0 C12.8115433,0 0,12.7598839 0,28.5 C0,44.2401161 12.8115433,57 28.6153846,57 Z" fill="#CE6F2D" id="imessage-2"/><path d="M25,38 L25,17.5106808 L25,17.5106808 L25.0286865,17.5 L35,17.5 C37,17.5 37.5,23 37.5,23 L39,23 L39.2999878,15.5 L37,15.5 C37,15.5 36.5,16 35,16 L17,16 L17,17 C17,17 21,17.3740845 21,19 L21,38 C21,38 21,40 19,40 L17,40 L17,41.5 L39.2663574,41.5 L40,41.5 L40.7000122,34 L39.5,34 C39.5,34 38.0250244,40 34,40 L27,40 C25,40 25,38 25,38 Z M25,27.7000122 L31,27.7000122 C32.5999756,27.7000122 33,23.7000122 33,23.7000122 L34.5,23.7000122 C34.5,23.7000122 34.2495117,27.2285767 34.2495117,28.5000124 C34.2495117,29.8067265 34.5,33.3000122 34.5,33.3000122 L33.0662231,33.3000126 C33.0662231,33.3000126 32.5999756,29.3000121 30.9959717,29.3000122 L25,29.3000122 L25,27.7000122 Z" fill="#FFFFFF" id="Rectangle-40"/></g></g></svg>