<?xml version="1.0" encoding="utf-8"?>
<!-- Generator: Adobe Illustrator 24.0.2, SVG Export Plug-In . SVG Version: 6.00 Build 0)  -->
<svg version="1.1" id="Layer_1" xmlns="http://www.w3.org/2000/svg" xmlns:xlink="http://www.w3.org/1999/xlink" x="0px" y="0px"
	 width="50" height="50"  viewBox="0 0 512 512" style="enable-background:new 0 0 512 512;" xml:space="preserve">
<style type="text/css">
	.st0{fill:#846549;}
</style>
<g>
	<g>
		<g>
			<path class="st0" d="M180.0461,252.2537c10.9457,25.3995,24.8672,49.3602,42.3391,70.8538
				c14.7802,18.1823,32.0784,34.11,45.2765,53.5815c20.7265,30.5783,40.1688,73.9992,26.3104,111.0543
				c-0.9715,2.5977-4.4446,1.544-4.0776-1.1241c3.2234-23.4313,2.6929-43.0985-5.512-65.5847
				c-8.6787-23.7846-21.9036-44.7112-38.244-63.9498c-27.8138-32.747-52.4416-63.3505-67.9724-104.0383
				C177.7546,251.9682,179.5846,251.1829,180.0461,252.2537L180.0461,252.2537z"/>
		</g>
		<g>
			<path class="st0" d="M180.1935,251.9364c4.1428,26.1003,8.1916,47.1989,26.5798,67.5431
				c14.4191,15.9528,33.2094,27.1197,47.8412,42.6893c0.8951,0.9524-0.2833,2.6822-1.4542,1.8847
				c-20.2051-13.761-41.6335-31.0904-56.6161-50.5212c-14.4019-18.6777-17.0853-38.3317-18.9323-61.2466
				C177.4943,250.8269,179.9605,250.4681,180.1935,251.9364L180.1935,251.9364z"/>
		</g>
		<g>
			<path class="st0" d="M179.4986,250.4699c27.7542,34.5275,59.3848,70.6159,76.2786,111.993
				c1.0159,2.4883-3.011,3.5549-4.0225,1.109c-17.2274-41.657-51.0087-73.5131-74.3203-111.5093
				C176.6735,250.8225,178.5468,249.2858,179.4986,250.4699L179.4986,250.4699z"/>
		</g>
		<g>
			<path class="st0" d="M179.6162,250.4874c42.912,15.3095,68.8128,69.1723,76.2626,110.8033
				c0.5423,3.0308-3.9868,4.3773-4.6837,1.2913c-9.7171-43.0254-30.6997-89.0742-72.5256-109.849
				C177.4363,252.1204,178.2988,250.0173,179.6162,250.4874L179.6162,250.4874z"/>
		</g>
		<g>
			<path class="st0" d="M179.9933,250.3109c56.1849,1.4536,79.9281,65.0266,76.3155,112.7065c-0.2448,3.2307-5.2626,3.292-5.0858,0
				c2.6605-49.5259-18.5023-100.2098-71.5942-110.0126C178.099,252.7223,178.4651,250.2713,179.9933,250.3109L179.9933,250.3109z"/>
		</g>
		<g>
			<path class="st0" d="M178.4846,251.8608c-12.0618,55.3829,30.7704,89.5575,76.4061,109.2322
				c2.2913,0.9878,0.6229,5.0374-1.7173,4.0733c-43.6101-17.9659-96.831-59.918-77.2786-114.0195
				C176.4787,249.5311,178.8562,250.155,178.4846,251.8608L178.4846,251.8608z"/>
		</g>
	</g>
	<g>
		<g>
			<path class="st0" d="M128.5195,68.4238c0.6516,35.2554,19.8832,66.8748,40.2894,94.4358
				c21.1062,28.5064,46.2636,52.1965,75.3945,72.3481c2.1514,1.4883,0.1751,5.0007-2.0766,3.5526
				c-30.047-19.3225-55.5229-45.2673-76.5726-73.9983c-21.0552-28.7384-38.7901-59.8759-38.8061-96.3382
				C126.7475,67.2828,128.4984,67.2834,128.5195,68.4238L128.5195,68.4238z"/>
		</g>
		<g>
			<path class="st0" d="M128.9849,67.6552c-5.6285,27.6079-7.8526,50.8257,6.747,76.4168
				c12.6918,22.247,33.0126,35.6987,54.2801,48.6784c2.5619,1.5635,0.3269,5.1375-2.3073,3.9474
				c-50.9169-23.0029-80.3378-75.6121-60.4831-129.5287C127.6266,66.0694,129.2222,66.4915,128.9849,67.6552L128.9849,67.6552z"/>
		</g>
		<g>
			<path class="st0" d="M126.7987,65.3126c14.6181,14.0421,21.9124,41.8175,30.589,59.9594
				c10.7604,22.4987,20.8102,46.3618,34.5757,67.1957c1.6462,2.4914-2.3643,4.8181-3.9967,2.3362
				c-13.1125-19.9364-22.7219-42.6835-32.9754-64.1899c-9.7962-20.5473-17.0928-45.3348-29.4491-64.3318
				C125.0365,65.5045,126.1567,64.6959,126.7987,65.3126L126.7987,65.3126z"/>
		</g>
		<g>
			<path class="st0" d="M129.1665,66.3195c40.4664,28.3143,45.1857,83.9431,63.3689,126.0555
				c1.2843,2.9745-3.0993,5.5666-4.3914,2.5669c-18.9929-44.0924-24.8407-91.7865-60.0161-127.2762
				C127.4646,66.9967,128.3463,65.7456,129.1665,66.3195L129.1665,66.3195z"/>
		</g>
		<g>
			<path class="st0" d="M129.0036,67.5366c-12.6124,28.0888-23.1138,55.4111-6.4414,84.4842
				c14.4997,25.2843,41.5187,37.7202,69.2513,42.354c3.3973,0.5676,1.9627,5.7602-1.428,5.1797
				c-30.8854-5.2879-60.689-20.5294-74.7335-49.9156c-13.6711-28.6049-3.3028-57.3963,10.5883-83.7174
				C127.2183,64.0687,129.8303,65.6956,129.0036,67.5366L129.0036,67.5366z"/>
		</g>
		<g>
			<path class="st0" d="M127.3858,65.2819c23.0829,2.9517,40.3043,21.4422,49.1998,42.0158
				c12.0876,27.9563,7.4389,59.5639,18.3921,87.1169c1.346,3.3859-4.1186,4.8463-5.4552,1.5039
				c-8.3089-20.7775-5.9524-44.8326-11.1018-66.5316c-7.0092-29.5361-22.9043-50.5709-51.3236-61.9724
				C126.0781,67.0058,126.0591,65.1123,127.3858,65.2819L127.3858,65.2819z"/>
		</g>
	</g>
	<g>
		<g>
			<path class="st0" d="M210.2604,16.9571c-12.8188,35.3226-6.7553,77.3955,0.1532,113.3108
				c8.2998,43.1485,24.1491,82.8638,41.4236,123.1233c33.0789,77.0929,72.8793,172.1666,35.1211,254.9964
				c-0.7811,1.7135-3.5821,0.4985-3.0289-1.2769c32.0952-103.0048-13.3396-195.3485-51.1487-289.5686
				c-14.6387-36.4795-25.2186-74.1085-30.1661-113.1745c-3.6214-28.5954-6.3336-61.1688,5.7659-88.203
				C208.8526,15.1096,210.6581,15.8615,210.2604,16.9571L210.2604,16.9571z"/>
		</g>
		<g>
			<path class="st0" d="M210.5897,16.4581c-23.7345,34.4293-16.9313,71.6436-2.2529,108.1645
				c0.7182,1.7869-2.3372,3.0913-3.1333,1.321c-13.8259-30.7451-27.3994-85.0548,3.5913-110.8705
				C209.7166,14.3053,211.3818,15.3091,210.5897,16.4581L210.5897,16.4581z"/>
		</g>
		<g>
			<path class="st0" d="M210.8036,16.5389c4.5648,39.3898-0.5466,79.9002,0.9284,119.525c0.0843,2.2649-3.3028,2.2076-3.4858,0
				c-3.2688-39.4307-1.6241-79.9825-0.8141-119.525C207.4776,14.3172,210.5595,14.4325,210.8036,16.5389L210.8036,16.5389z"/>
		</g>
		<g>
			<path class="st0" d="M209.5313,16.8848c-21.6172,11.5983-29.3559,32.6397-27.1689,56.4707
				c2.1452,23.3754,16.7937,43.334,27.5772,63.4718c1.1966,2.2345-2.1033,4.1791-3.4046,1.9901
				c-14.8995-25.0638-31.4331-49.7476-28.6065-80.1651c1.8054-19.4281,10.6277-38.5448,30.458-44.4831
				C209.9853,13.6904,211.0267,16.0824,209.5313,16.8848L209.5313,16.8848z"/>
		</g>
		<g>
			<path class="st0" d="M210.8022,14.3492c31.3317,27.7529,11.253,90.7432,2.7666,124.4878
				c-0.5689,2.2622-3.9323,1.297-3.4715-0.957c8.3803-40.9924,19.6517-83.6844-0.6414-122.492
				C208.9991,14.5142,210.0694,13.7002,210.8022,14.3492L210.8022,14.3492z"/>
		</g>
		<g>
			<path class="st0" d="M210.5149,14.8341c20.1501,1.5419,29.7464,20.4493,31.4001,38.942
				c1.27,14.2019-2.2003,28.3102-7.4329,41.4098c-5.8115,14.549-19.2778,29.8856-21.2656,45.4415
				c-0.2612,2.044-3.1011,2.1402-3.2572,0c-1.1862-16.2654,13.8694-32.4747,19.6847-47.1226
				c9.8668-24.8529,13.5779-67.6963-19.3343-77.1553C209.5025,16.1174,209.6204,14.7657,210.5149,14.8341L210.5149,14.8341z"/>
		</g>
	</g>
	<g>
		<g>
			<path class="st0" d="M280.1879,114.3057c-3.9301,46.8054,7.6126,92.9213,14.6632,138.8744
				c5.512,35.9249,9.8501,75.7096-6.2589,109.5492c-0.9339,1.9618-3.8249,0.2504-2.9112-1.7016
				c18.6528-39.848,8.0008-91.837,1.113-133.3643c-6.2752-37.8345-12.0143-74.9048-8.4919-113.3577
				C278.4117,113.1094,280.2898,113.0918,280.1879,114.3057L280.1879,114.3057z"/>
		</g>
		<g>
			<path class="st0" d="M279.8237,114.3984c-11.4369,26.4876-14.312,48.2762-6.8429,76.4582
				c5.6655,21.3765,14.5339,41.1947,22.311,61.8012c0.6714,1.7791-2.1178,2.8795-3.0289,1.2769
				c-22.6952-39.9186-42.5343-99.0558-14.2155-140.5747C278.8083,112.2446,280.3419,113.1983,279.8237,114.3984L279.8237,114.3984z"
				/>
		</g>
		<g>
			<path class="st0" d="M278.7527,115.6516c-21.7166,21.1389-30.2576,49.793-18.5893,78.5677
				c8.6405,21.308,22.1779,38.9606,34.7005,57.9709c1.2363,1.8768-1.5009,3.8655-3.0515,2.3545
				c-36.564-35.6327-62.4839-103.5585-14.0638-140.1944C278.5076,113.776,279.4135,115.0083,278.7527,115.6516L278.7527,115.6516z"
				/>
		</g>
		<g>
			<path class="st0" d="M280.0481,114.9591c17.7195,40.6993,32.7963,95.2568,17.1823,138.8182
				c-0.7992,2.2298-3.7838,1.3037-3.4715-0.957c3.3848-24.4993,4.7321-47.1023,1.0512-71.6656
				c-3.3652-22.4565-10.9281-43.5527-16.4854-65.469C278.0735,114.6946,279.6068,113.9454,280.0481,114.9591L280.0481,114.9591z"/>
		</g>
		<g>
			<path class="st0" d="M279.7862,113.1658c45.6177,24.328,44.7932,106.1495,16.5521,142.2024
				c-1.2302,1.5705-3.6089-0.4339-2.6925-2.0775c23.3487-41.8766,25.4039-105.3519-14.9676-138.689
				C277.8496,113.9177,278.9064,112.6967,279.7862,113.1658L279.7862,113.1658z"/>
		</g>
	</g>
	<g>
		<g>
			<path class="st0" d="M354.6318,251.7635c11.565,88.8788,2.8555,192.0983-66.6674,256.5746
				c-1.8903,1.7531-5.1414-0.5036-3.6797-2.8392c14.0987-22.5284,32.2816-41.7407,44.5699-65.5959
				c9.1236-17.7115,13.7216-36.9104,17.3341-56.3956c7.9479-42.8695,10.6923-88.3504,5.7001-131.7439
				C351.6864,250.0027,354.4081,250.044,354.6318,251.7635L354.6318,251.7635z"/>
		</g>
		<g>
			<path class="st0" d="M355.5147,252.0456c-7.905,40.5784-13.1787,78.4579-1.3476,118.9191
				c0.7115,2.4334-2.778,3.224-3.6919,1.0178c-14.9241-36.0283-11.1865-84.7899,3.221-120.4382
				C354.1456,250.4326,355.7512,250.8318,355.5147,252.0456L355.5147,252.0456z"/>
		</g>
		<g>
			<path class="st0" d="M356.3967,251.7369c11.1981,18.2417,13.3004,41.7142,15.4691,62.6477
				c2.4613,23.7593-6.181,40.2485-18.504,59.9361c-1.4281,2.2816-5.1132,0.0046-3.5526-2.0766
				c27.6003-36.8084,15.3137-79.1589,4.812-119.7587C354.3444,251.4157,355.8176,250.7936,356.3967,251.7369L356.3967,251.7369z"/>
		</g>
		<g>
			<path class="st0" d="M355.2975,250.3638c25.2635,7.0125,34.1655,35.3024,37.1682,58.5922
				c4.1299,32.0329-15.7364,47.4569-38.7078,65.9235c-2.0682,1.6626-5.0367-1.2459-2.9497-2.9497
				c18.347-14.9787,37.4259-30.0949,37.1805-56.0115c-0.2431-25.6754-11.5114-50.2625-33.4398-63.7789
				C353.624,251.5692,354.2152,250.0633,355.2975,250.3638L355.2975,250.3638z"/>
		</g>
		<g>
			<path class="st0" d="M355.119,252.7261c-14.4806,17.018-23.2144,34.7867-24.0061,57.5364
				c-0.669,19.2222,3.3958,52.4038,21.1133,63.9641c2.7068,1.7662,0.1465,6.1534-2.5381,4.3421
				c-18.4601-12.4549-22.3471-41.453-22.6722-62.1125c-0.3767-23.9337,7.5738-49.6653,26.9314-64.9019
				C354.7769,250.9012,355.823,251.8988,355.119,252.7261L355.119,252.7261z"/>
		</g>
	</g>
</g>
</svg>
