<?xml version="1.0" encoding="utf-8"?>
<!-- Generator: Adobe Illustrator 24.0.2, SVG Export Plug-In . SVG Version: 6.00 Build 0)  -->
<svg version="1.1" id="Layer_1" xmlns="http://www.w3.org/2000/svg" xmlns:xlink="http://www.w3.org/1999/xlink" x="0px" y="0px"
	 width="50" height="50"  viewBox="0 0 512 512" style="enable-background:new 0 0 512 512;" xml:space="preserve">
<style type="text/css">
	.st0{fill:#335B66;}
</style>
<g>
	<path class="st0" d="M73.2262,453.148c10.0025-8.7859,20.6673-16.6734,32.0023-23.2083
		c18.0551-12.1182,37.4379-22.4962,57.8741-29.8823c23.1472-8.3648,47.3331-13.4558,70.4575-21.8966
		c51.5958-18.8326,90.5088-60.9515,99.649-116.0356c7.3553-44.3254-7.6835-90.5784,6.5052-134.0536
		c0.0494-0.1514,0.2804-0.1073,0.2475,0.0547c-9.6483,46.4697,4.7166,93.5538-4.543,139.8721
		c-8.3664,41.8486-35.3806,79.7905-72.3767,101.1035c-43.0966,24.8258-94.1199,29.5584-137.2966,54.9306
		c-6.4701,3.8022-12.6928,7.7924-18.6897,11.9615c-14.2322,10.609-27.5436,21.8202-39.8806,33.8481
		C63.5168,473.3405,58.7125,466.2422,73.2262,453.148z"/>
	<g>
		<g>
			<g>
				<path class="st0" d="M323.1035,296.4888c8.3234-29.6481,41.0154-34.4487,65.3293-45.2929
					c33.6028-14.9874,47.5875-49.101,57.4059-82.2831c0.5219-1.7641,2.2935-6.93,1.7906-7.3591
					c0.2947,0.2512-7.6856,4.7761-7.2752,4.5706c-5.852,2.9218-12.3837,4.4601-18.6764,6.041
					c-20.773,5.219-36.2914,13.2541-49.1052,30.9805c-19.4847,26.9531-24.8311,61.6955-46.056,87.5148
					c-0.4933,0.6001-1.5118,0.0138-1.0504-0.6659c18.3265-26.9829,25.3521-59.7105,44.0036-86.3535
					c7.4993-10.7131,16.9474-20.3933,28.8287-26.1762c16.8141-8.1838,36.8288-6.7903,51.0446-20.312
					c0.7694-0.7318,1.943,0.1067,1.678,1.0679c-7.8046,28.2595-16.6909,59.3547-38.8376,80.0475
					c-25.7275,24.0378-76.0578,20.927-88.5785,58.3808C323.497,296.971,323.0122,296.8149,323.1035,296.4888L323.1035,296.4888z"/>
			</g>
			<g>
				<path class="st0" d="M449.2919,160.7147c-4.0029,9.4025-9.2203,17.9213-16.1811,25.4317
					c-9.8937,10.6738-22.6109,16.5497-33.9256,25.4046c-23.177,18.1375-41.3957,44.122-61.8904,65.2024
					c-0.7243,0.7456-2.0923-0.3579-1.4211-1.1842c16.9134-20.8165,33.8247-43.4194,54.3646-60.8139
					c9.5007-8.0457,20.6424-13.6322,30.6471-20.9583c12.0141-8.7971,21.1685-20.0837,28.0199-33.2634
					C449.0168,160.3191,449.3881,160.4896,449.2919,160.7147L449.2919,160.7147z"/>
			</g>
			<g>
				<path class="st0" d="M449.19,160.2915c-6.2784,10.1523-13.8445,19.0423-23.6708,25.975
					c-14.7765,10.4252-32.0616,16.1179-46.0741,27.84c-12.8781,10.7741-21.4267,23.9597-28.7198,38.8515
					c-5.6699,11.576-14.4122,20.6546-21.1623,31.5349c-0.2368,0.3818-0.9123,0.094-0.7307-0.3409
					c5.116-12.234,14.6746-21.8855,20.3301-33.9809c5.3034-11.3413,11.4071-21.6901,20.1904-30.7097
					c9.7482-10.01,21.3332-17.2947,33.7312-23.5646c18.2548-9.2299,33.5603-19.063,45.8633-35.7593
					C449.0562,159.9899,449.2882,160.1327,449.19,160.2915L449.19,160.2915z"/>
			</g>
			<g>
				<path class="st0" d="M448.5055,159.8088c-13.1303,16.863-33.7758,21.1813-51.6101,31.2747
					c-22.7803,12.8924-34.9999,36.1427-48.0134,57.7956c-0.3919,0.6521-1.2723,0.0324-0.9691-0.6144
					c9.2857-19.8299,20.3784-39.9842,38.15-53.483c19.3716-14.7144,45.2754-16.7647,62.2239-35.155
					C448.3961,159.5082,448.6053,159.6803,448.5055,159.8088L448.5055,159.8088z"/>
			</g>
			<g>
				<path class="st0" d="M447.1136,165.5493c-6.5944,23.0139-20.8282,43.0461-39.3008,58.1025
					c-11.6902,9.5283-24.6341,17.4068-36.7093,26.4194c-12.3253,9.1996-23.8938,19.413-36.3445,28.4321
					c-0.6558,0.4742-1.4959-0.3627-0.8762-0.9495c19.3541-18.3233,41.5332-32.7892,63.1532-48.1722
					c23.3575-16.6192,39.2636-37.3115,49.804-63.9194C446.9076,165.2917,447.1646,165.3698,447.1136,165.5493L447.1136,165.5493z"/>
			</g>
		</g>
		<path class="st0" d="M328.6417,283.1949c4.44-3.1586,9.796-5.3507,15.179-6.2131c16.3542-2.6185,28.7852,6.3012,44.3509,6.3782
			c11.3381,0.0563,22.6996-4.0613,32.7159-9.4168c10.7285-5.7362,21.1346-13.5286,29.2562-21.9896
			c-2.8394,2.9584-11.3843,5.2625-15.3336,6.4664c-5.1027,1.5565-10.3849,2.6546-15.5662,3.1166
			c-10.8145,0.9638-20.2255-2.1448-30.6555-2.4279C367.2935,258.5322,343.9779,268.3781,328.6417,283.1949"/>
	</g>
	<g>
		<g>
			<g>
				<path class="st0" d="M214.1195,388.064c29.5223-8.7599,51.009,16.3426,73.144,31.135
					c30.5908,20.4432,66.9086,14.0942,100.2177,4.7156c1.7705-0.4986,7.0862-1.7524,7.1812-2.4072
					c-0.0563,0.3839-8.1381-3.9578-7.7451-3.7194c-5.5912-3.3944-10.3748-8.1009-15.0665-12.5828
					c-15.4871-14.7946-30.5567-23.6422-52.3854-25.0361c-33.1907-2.1204-65.4366,11.8729-98.5954,7.6761
					c-0.7711-0.0977-0.8173-1.2713,0.0037-1.2437c32.5986,1.1242,64.0341-10.3743,96.5186-8.7939
					c13.0618,0.6351,26.2877,3.4698,37.5138,10.4406c15.8859,9.865,25.3749,27.5421,44.3933,32.3638
					c1.0291,0.2607,0.9448,1.7004-0.009,1.9887c-28.0715,8.4583-59.1173,17.5135-88.4304,9.804
					c-34.0515-8.9564-58.2453-53.2-96.6083-43.8315C213.9209,388.6534,213.795,388.1601,214.1195,388.064L214.1195,388.064z"/>
			</g>
			<g>
				<path class="st0" d="M396.2587,422.4665c-10.0896,1.625-20.0789,1.7508-30.1436-0.136
					c-14.3044-2.6817-26.0541-10.3105-39.5768-15.1642c-27.6998-9.9431-59.3961-11.5091-88.1569-17.6139
					c-1.0169-0.2161-0.812-1.9611,0.2448-1.8331c26.6281,3.2154,54.766,5.4771,80.4319,13.5849
					c11.8713,3.7502,22.5365,10.2001,34.0679,14.7601c13.8467,5.4765,28.2759,7.2066,43.0796,5.9789
					C396.4467,422.023,396.5003,422.4282,396.2587,422.4665L396.2587,422.4665z"/>
			</g>
			<g>
				<path class="st0" d="M396.5619,422.1553c-11.936,0.0982-23.4913-1.5644-34.5936-6.1839
					c-16.6978-6.9465-30.7266-18.5368-48.1143-24.1451c-15.9793-5.1542-31.6921-5.3592-48.1801-3.593
					c-12.8165,1.3722-25.1577-1.1858-37.9615-1.0982c-0.4492,0.0037-0.5656-0.7216-0.1009-0.7997
					c13.0778-2.1921,26.3392,0.7514,39.5875-0.9097c12.4229-1.558,24.4317-1.9096,36.7453,0.7153
					c13.6651,2.9127,26.0042,8.8316,37.9169,15.9804c17.5395,10.5262,34.0175,18.2357,54.7018,19.7465
					C396.7456,421.8813,396.7483,422.1537,396.5619,422.1553L396.5619,422.1553z"/>
			</g>
			<g>
				<path class="st0" d="M396.6054,421.3189c-21.2663-2.1226-35.9244-17.2889-53.97-26.9994
					c-23.05-12.4034-49.2358-10.3498-74.4929-9.8199c-0.7604,0.0159-0.7052-1.0589,0.0037-1.1476
					c21.7278-2.7125,44.6928-4.0688,65.5864,3.773c22.7755,8.548,38.3162,29.373,62.9105,33.9118
					C396.8014,421.0661,396.7679,421.3348,396.6054,421.3189L396.6054,421.3189z"/>
			</g>
			<g>
				<path class="st0" d="M391.0067,423.2003c-22.9868,6.6868-47.5238,5.3204-70.1092-2.2845
					c-14.2922-4.8127-27.8575-11.5648-41.9198-16.9787c-14.3528-5.5254-29.1607-9.8698-43.4279-15.5981
					c-0.7509-0.3016-0.4907-1.4582,0.3356-1.2469c25.8199,6.6093,49.8816,17.6654,74.4201,27.7592
					c26.5119,10.9053,52.4974,13.3348,80.6289,8.0717C391.1151,422.8892,391.1852,423.1483,391.0067,423.2003L391.0067,423.2003z"/>
			</g>
		</g>
		<path class="st0" d="M228.3193,385.6642c5.039,2.0732,9.7487,5.4367,13.347,9.5315
			c10.9335,12.4416,10.0116,27.7146,18.2426,40.9257c5.9959,9.6229,15.5354,17.0419,25.4052,22.6619
			c10.5718,6.0208,22.7112,10.6722,34.1991,13.0347c-4.0162-0.8263-10.5203-6.828-13.6439-9.5278
			c-4.0363-3.4878-7.7812-7.3718-10.9334-11.5101c-6.58-8.6357-8.9654-18.2559-14.2858-27.2314
			C269.7883,405.2233,249.0307,390.7425,228.3193,385.6642"/>
	</g>
	<g>
		<g>
			<path class="st0" d="M290.0796,350.2847c17.9436-16.7201,47.6045-10.644,66.7504,0.8459
				c0.4642,0.2788,0.1652,0.9686-0.3563,0.7721c-20.8744-7.8561-46.5918-18.2574-66.1705-1.378
				C290.1624,350.6458,289.9415,350.4137,290.0796,350.2847L290.0796,350.2847z"/>
		</g>
		<g>
			<path class="st0" d="M319.8759,340.1902c7.6867-0.9649,16.1057-1.8326,23.0888-5.3475c0.3553-0.179,0.728,0.3515,0.4524,0.6314
				c-5.2923,5.3841-16.5618,4.9359-23.5104,4.9981C319.7267,340.4738,319.6921,340.2136,319.8759,340.1902L319.8759,340.1902z"/>
		</g>
		<g>
			<path class="st0" d="M333.191,338.3874c4.1681-3.3131,6.8732-6.8206,9.1635-11.6233c0.1253-0.2634,0.5395-0.1418,0.4923,0.1503
				c-0.8114,5.0608-4.6996,9.9038-9.4332,11.8856C333.1576,338.9078,332.9871,338.5493,333.191,338.3874L333.191,338.3874z"/>
		</g>
		<g>
			<path class="st0" d="M336.6645,337.936c6.2668-0.8661,14.3698,0.3271,19.7199,3.8405c0.3293,0.2156,0.0536,0.8029-0.3218,0.7057
				c-3.2287-0.839-6.2566-2.2218-9.5204-2.9998c-3.268-0.779-6.5625-0.9771-9.882-1.4062
				C336.579,338.0661,336.5875,337.9466,336.6645,337.936L336.6645,337.936z"/>
		</g>
		<g>
			<path class="st0" d="M345.7032,338.5509c4.0417-1.0005,7.1403-2.482,10.4481-5.0299c0.3234-0.2485,0.7281,0.2044,0.4795,0.514
				c-2.5272,3.149-6.8859,5.048-10.909,4.6975C345.6321,338.7251,345.6119,338.5732,345.7032,338.5509L345.7032,338.5509z"/>
		</g>
		<g>
			<path class="st0" d="M341.4337,345.6323c6.639-1.1354,14.7155-0.8465,20.3731,3.2303c0.2363,0.1705-0.0159,0.4716-0.2501,0.3961
				c-6.8976-2.1953-12.7103-4.2361-20.0927-3.3434C341.2813,345.9366,341.2558,345.6631,341.4337,345.6323L341.4337,345.6323z"/>
		</g>
		<g>
			<path class="st0" d="M363.8603,342.3994c-2.9111,2.3058-6.0464,3.4963-9.7683,3.5531c-0.2996,0.0048-0.3564-0.454-0.05-0.4694
				c3.5027-0.1779,6.8323-1.224,9.736-3.1995C363.8534,342.2326,363.9315,342.3425,363.8603,342.3994L363.8603,342.3994z"/>
		</g>
		<g>
			<path class="st0" d="M351.5674,349.6256c4.3879,1.5873,8.1206,6.9874,7.7781,11.7428c-0.0128,0.1784-0.291,0.2427-0.3829,0.0881
				c-0.9728-1.6287-1.2538-3.5537-1.9967-5.2923c-1.1343-2.6568-2.9579-4.8977-5.518-6.2805
				C351.2865,349.7961,351.3959,349.5641,351.5674,349.6256L351.5674,349.6256z"/>
		</g>
		<g>
			<path class="st0" d="M356.6999,355.0629c3.5648,1.2644,7.2417,1.9839,10.8554,3.054c0.2878,0.0855,0.2321,0.4912-0.077,0.4662
				c-3.8096-0.3075-7.4387-1.6967-10.9175-3.2197C356.3637,355.2764,356.5018,354.9928,356.6999,355.0629L356.6999,355.0629z"/>
		</g>
		<g>
			<path class="st0" d="M335.4277,343.6839c2.9855,1.634,5.253,4.3661,7.2693,7.0585c1.9446,2.5946,3.5463,5.5573,2.8517,8.8842
				c-0.0813,0.3866-0.6526,0.385-0.7026-0.0207c-0.7216-5.8615-4.7432-12.1973-9.5937-15.6448
				C335.1023,343.8539,335.2636,343.5942,335.4277,343.6839L335.4277,343.6839z"/>
		</g>
		<g>
			<path class="st0" d="M342.5149,351.1035c2.8612,1.6685,5.8063,3.2367,8.4966,5.176c0.2586,0.1864-0.0159,0.6271-0.2995,0.4763
				c-2.9281-1.5554-5.6364-3.5064-8.3967-5.3347C342.1385,351.3037,342.3296,350.9957,342.5149,351.1035L342.5149,351.1035z"/>
		</g>
		<g>
			<path class="st0" d="M323.1635,341.0181c2.9271-0.1795,4.9954,1.6754,6.426,4.0746c1.9032,3.1926,3.5218,6.7787,4.3226,10.4109
				c0.0775,0.3489-0.4662,0.4546-0.5921,0.1423c-1.8204-4.517-3.9807-14.2731-10.1268-14.3464
				C323.0154,341.2985,322.9776,341.0298,323.1635,341.0181L323.1635,341.0181z"/>
		</g>
		<g>
			<path class="st0" d="M330.5714,347.2509c2.3615,1.429,4.9439,2.9244,6.6916,5.0952c0.2353,0.2915-0.1747,0.5948-0.445,0.4153
				c-2.2813-1.5135-4.2191-3.5972-6.3968-5.2726C330.2969,347.3932,330.4318,347.1664,330.5714,347.2509L330.5714,347.2509z"/>
		</g>
		<g>
			<path class="st0" d="M341.3482,349.872c0.7785,2.0525-0.0844,4.5494-0.7015,6.5556c-0.7227,2.3498-1.7938,4.5934-3.2653,6.5625
				c-0.1922,0.257-0.6165-0.0122-0.4758-0.3c0.8396-1.7158,1.7423-3.3917,2.4677-5.1601c0.8714-2.1204,2.4194-5.2482,1.7545-7.5736
				C341.0864,349.812,341.2935,349.7281,341.3482,349.872L341.3482,349.872z"/>
		</g>
		<g>
			<path class="st0" d="M341.3562,324.0442c-0.2151,0.3717-0.429,0.7434-0.6431,1.1157c0.1593,0.6845,0.3192,1.369,0.4801,2.053
				c-0.0627-0.0749-0.1254-0.1497-0.188-0.2252c1.0074,0.3027,2.0148,0.6048,3.0221,0.907
				c-0.0966,0.051-0.1933,0.1014-0.2894,0.1524c0.53-0.8635,1.0583-1.728,1.5878-2.5915c0.0032,0.1136,0.0064,0.2278,0.0096,0.3415
				c-0.6771-0.7174-1.3541-1.4343-2.0318-2.1512c0.1094,0.0281,0.2188,0.0563,0.3287,0.0855
				c2.4231,0.6303,2.7577,4.6195-0.1365,4.739c-0.1105,0.0048-0.2209,0.0096-0.3314,0.0143
				c-1.0525,0.043-2.181-0.4928-2.5389-1.5559c-0.9856-2.926,2.3631-5.4436,4.7888-3.2382c0.8725,0.7933,1.4742,2.361,0.7907,3.4852
				c-0.0611,0.1003-0.1221,0.2013-0.1837,0.3022c-0.6144,1.0116-1.8459,2.0615-3.1639,1.6781
				c-0.1105-0.0324-0.2204-0.0648-0.3303-0.0966C340.2314,328.3912,339.3319,325.6495,341.3562,324.0442L341.3562,324.0442z"/>
		</g>
		<g>
			<path class="st0" d="M341.9493,334.4625c0.42-2.5522,4.3874-1.9027,3.9658,0.6532
				C345.4951,337.6678,341.5282,337.0184,341.9493,334.4625L341.9493,334.4625z"/>
		</g>
		<g>
			<path class="st0" d="M352.2535,332.2221c0.9389-5.7001,9.7981-4.2504,8.8577,1.4593
				C360.1718,339.381,351.3125,337.9318,352.2535,332.2221L352.2535,332.2221z"/>
		</g>
		<g>
			<path class="st0" d="M355.1907,343.7705c-0.0398-0.0457-0.0807-0.0908-0.1205-0.137c-2.1671-2.4576,3.2133-5.5902,4.0565-1.5448
				c0.0117,0.0563,0.0234,0.1131,0.0351,0.1694C359.6577,344.6408,356.4678,345.2186,355.1907,343.7705L355.1907,343.7705z"/>
		</g>
		<g>
			<path class="st0" d="M362.4871,341.5327c0.3701-2.25,3.8675-1.6776,3.4963,0.5756
				C365.6127,344.3583,362.1159,343.7859,362.4871,341.5327L362.4871,341.5327z"/>
		</g>
		<g>
			<path class="st0" d="M363.6442,348.0129c1.1279,1.907-1.0738,4.3014-2.9472,2.7481
				C358.3317,348.801,362.1722,345.524,363.6442,348.0129L363.6442,348.0129z"/>
		</g>
		<g>
			<path class="st0" d="M365.8013,358.0378c0.5193-3.1501,5.4154-2.3488,4.8955,0.8061
				C370.178,361.994,365.2819,361.1931,365.8013,358.0378L365.8013,358.0378z"/>
		</g>
		<g>
			<path class="st0" d="M355.4143,351.061c0.4105-2.4916,4.2833-1.8581,3.8723,0.6378
				C358.8755,354.1909,355.0027,353.5569,355.4143,351.061L355.4143,351.061z"/>
		</g>
		<g>
			<path class="st0" d="M355.4594,361.6902c0.8396-5.0995,8.7668-3.8027,7.9257,1.3058
				C362.545,368.0955,354.6177,366.7982,355.4594,361.6902L355.4594,361.6902z"/>
		</g>
		<g>
			<path class="st0" d="M349.841,356.4351c0.3016-1.8305,3.1458-1.3647,2.8442,0.4684
				C352.3836,358.7329,349.5394,358.2682,349.841,356.4351L349.841,356.4351z"/>
		</g>
		<g>
			<path class="st0" d="M346.5136,359.5039c-0.3499-0.1986-0.6994-0.3972-1.0488-0.5963c-0.4492,0.2416-0.899,0.4827-1.3477,0.7243
				c-0.0552,0.146-0.1093,0.2921-0.1641,0.4391c0.1253,0.5348,0.2501,1.07,0.3754,1.6059c0.4004,0.2124,0.8013,0.4243,1.2018,0.6367
				c0.5135-0.2751,1.0275-0.5512,1.5416-0.8268c-0.0802,0.1062-0.1593,0.213-0.2395,0.3192
				c0.0334-0.9612,0.0674-1.9223,0.1015-2.8846c0.0578,0.1004,0.1168,0.2007,0.1752,0.3016
				c-0.7345-0.3298-1.4694-0.659-2.2038-0.9888c0.1147,0.0027,0.2288,0.0053,0.343,0.008
				c-0.6516,0.4678-1.3032,0.9352-1.9553,1.4024c0.0398-0.1094,0.0797-0.2182,0.1201-0.3282
				c0.0785,0.822,0.1571,1.6435,0.2352,2.4656c-0.077-0.0855-0.154-0.1705-0.231-0.2565c0.7599,0.3415,1.5209,0.6819,2.2813,1.0233
				c0.4556-0.2894,0.9113-0.5799,1.3663-0.8698c0.0223-0.6611,0.0441-1.3212,0.0659-1.9818
				c-0.1391-0.1705-0.2783-0.3404-0.4169-0.5103c-0.6351-0.1922-1.2708-0.3839-1.9069-0.5757
				c0.1131-0.0048,0.2257-0.0101,0.3383-0.0143c2.6939-0.1173,4.0529,3.9886,1.1673,4.8606c-2.4343,0.736-4.936-1.3-3.8824-3.9169
				c0.8948-2.2234,3.8856-2.5994,5.2174-0.6266c0.4716,0.6988,0.6521,1.6881,0.2353,2.4651
				c-0.0552,0.1025-0.1099,0.205-0.1646,0.3069c-0.4822,0.899-1.5336,1.6335-2.6084,1.3828
				c-1.1508-0.2676-1.9213-0.7567-2.3026-1.9255c-0.3547-1.0865-0.0032-2.0403,0.83-2.7651
				c2.1411-1.8618,5.6879,0.5709,4.2632,3.1936c-1.3096,2.412-5.3953,1.2824-4.6684-1.5628
				c0.2151-0.8427,1.0308-1.6993,2.0047-1.4375C345.8121,358.7254,346.2682,358.9214,346.5136,359.5039L346.5136,359.5039z"/>
		</g>
		<g>
			<path class="st0" d="M334.0354,362.8856c0.573-3.4799,5.9821-2.5946,5.408,0.8905
				C338.8699,367.2565,333.4614,366.3713,334.0354,362.8856L334.0354,362.8856z"/>
		</g>
		<g>
			<path class="st0" d="M336.5089,352.5108c0.2273-1.3791,2.3721-1.0286,2.1448,0.3537
				C338.4259,354.244,336.2812,353.893,336.5089,352.5108L336.5089,352.5108z"/>
		</g>
		<g>
			<path class="st0" d="M329.8943,355.2997c0.7217-4.3794,7.529-3.2658,6.8063,1.1216
				C335.9795,360.8007,329.1716,359.6866,329.8943,355.2997L329.8943,355.2997z"/>
		</g>
	</g>
	<g>
		<g>
			<path class="st0" d="M94.8897,441.6373c21.2116-12.3131,48.7803,0.2045,64.8928,15.6628
				c0.3908,0.3744-0.0547,0.9808-0.5193,0.6733c-18.6058-12.2998-41.3675-28.1575-64.2083-16.0526
				C94.8908,442.008,94.7267,441.7318,94.8897,441.6373L94.8897,441.6373z"/>
		</g>
		<g>
			<path class="st0" d="M126.1851,438.4187c7.7085,0.7679,16.1095,1.7939,23.6995-0.0812c0.3866-0.0956,0.6314,0.5045,0.3006,0.7158
				c-6.3565,4.0736-17.2448,1.1311-24.0335-0.3526C125.9764,438.6614,126.0003,438.4007,126.1851,438.4187L126.1851,438.4187z"/>
		</g>
		<g>
			<path class="st0" d="M139.5672,439.621c4.8005-2.3042,8.2172-5.1223,11.5181-9.2957c0.1811-0.2289,0.5576-0.0186,0.4466,0.256
				c-1.9154,4.7538-6.7834,8.6118-11.8389,9.4912C139.4195,440.1201,139.3324,439.7336,139.5672,439.621L139.5672,439.621z"/>
		</g>
		<g>
			<path class="st0" d="M143.0545,439.9529c6.3023,0.5486,13.9375,3.5133,18.3733,8.1275c0.2724,0.2836-0.1259,0.795-0.4711,0.6165
				c-2.9616-1.5358-5.6061-3.5569-8.6155-5.04c-3.0131-1.4869-6.1806-2.4125-9.3223-3.5685
				C142.9425,440.0607,142.9764,439.946,143.0545,439.9529L143.0545,439.9529z"/>
		</g>
		<g>
			<path class="st0" d="M151.7305,442.5613c4.1633-0.077,7.5136-0.8321,11.3046-2.5814c0.3712-0.171,0.6649,0.3616,0.3531,0.6086
				c-3.1639,2.5081-7.8354,3.3907-11.6801,2.1544C151.6221,442.7153,151.637,442.5629,151.7305,442.5613L151.7305,442.5613z"/>
		</g>
		<g>
			<path class="st0" d="M145.9932,448.5168c6.7261,0.3691,14.5354,2.4454,19.1454,7.6782c0.1923,0.2182-0.1205,0.4556-0.3314,0.3308
				c-6.2375-3.6737-11.4507-6.956-18.8469-7.7271C145.7771,448.7797,145.8132,448.5073,145.9932,448.5168L145.9932,448.5168z"/>
		</g>
		<g>
			<path class="st0" d="M168.5775,450.35c-3.3508,1.6005-6.6724,2.0647-10.3137,1.2925c-0.2931-0.0616-0.2464-0.522,0.0558-0.4689
				c3.4544,0.6054,6.9337,0.3255,10.2038-0.9543C168.6083,450.1859,168.6598,450.3102,168.5775,450.35L168.5775,450.35z"/>
		</g>
		<g>
			<path class="st0" d="M154.9857,454.663c3.9259,2.5224,6.3644,8.6171,4.9737,13.1771c-0.0526,0.1721-0.3377,0.1721-0.3935,0.0021
				c-0.5857-1.805-0.4317-3.7443-0.7695-5.604c-0.5156-2.8426-1.796-5.433-3.9838-7.3511
				C154.6745,454.7666,154.8323,454.5648,154.9857,454.663L154.9857,454.663z"/>
		</g>
		<g>
			<path class="st0" d="M158.781,461.105c3.1947,2.0248,6.6193,3.5436,9.9048,5.3905c0.2623,0.1471,0.1179,0.5305-0.1784,0.437
				c-3.6456-1.146-6.8753-3.3073-9.9282-5.5658C158.4062,461.2388,158.6037,460.9924,158.781,461.105L158.781,461.105z"/>
		</g>
		<g>
			<path class="st0" d="M140.5714,445.2823c2.5468,2.2563,4.1501,5.4245,5.518,8.4976c1.3186,2.9616,2.2224,6.2062,0.8056,9.2957
				c-0.1652,0.3585-0.7222,0.2299-0.6803-0.1768c0.599-5.8748-1.9138-12.9461-5.8759-17.3855
				C140.2156,445.3747,140.4307,445.1575,140.5714,445.2823L140.5714,445.2823z"/>
		</g>
		<g>
			<path class="st0" d="M145.8313,454.0916c2.4188,2.2627,4.9417,4.4463,7.1339,6.9353c0.2103,0.239-0.1551,0.6075-0.3988,0.3972
				c-2.5086-2.1677-4.7156-4.6715-7.0001-7.0681C145.4197,454.2032,145.6746,453.9451,145.8313,454.0916L145.8313,454.0916z"/>
		</g>
		<g>
			<path class="st0" d="M129.2062,439.9571c2.8941,0.4753,4.4984,2.7438,5.3597,5.4006c1.1454,3.5362,1.9266,7.392,1.9006,11.1113
				c-0.0026,0.3569-0.556,0.3394-0.6096,0.0069c-0.7705-4.8085-0.7084-14.8004-6.6841-16.2379
				C128.9996,440.1971,129.0219,439.9263,129.2062,439.9571L129.2062,439.9571z"/>
		</g>
		<g>
			<path class="st0" d="M135.0433,447.6799c1.9845,1.9186,4.1702,3.9509,5.3916,6.4558c0.1646,0.3362-0.3027,0.5411-0.5268,0.3053
				c-1.8873-1.9823-3.3131-4.4442-5.0639-6.562C134.7443,447.758,134.9259,447.5668,135.0433,447.6799L135.0433,447.6799z"/>
		</g>
		<g>
			<path class="st0" d="M144.9678,452.6313c0.3032,2.1746-1.0945,4.4166-2.1417,6.2359c-1.2262,2.13-2.7693,4.0799-4.6417,5.672
				c-0.2448,0.2082-0.5985-0.1487-0.3972-0.3983c1.1996-1.4853,2.4524-2.9191,3.5531-4.4819
				c1.3207-1.8735,3.5255-4.5791,3.3938-6.9943C144.7262,452.515,144.946,452.4784,144.9678,452.6313L144.9678,452.6313z"/>
		</g>
		<g>
			<path class="st0" d="M150.7168,427.4507c-0.2921,0.3149-0.5836,0.6298-0.8752,0.9447c0.0037,0.7036,0.0074,1.4062,0.0112,2.1093
				c-0.0435-0.0871-0.0876-0.1742-0.1328-0.2613c0.9155,0.5188,1.8305,1.0371,2.7449,1.5559
				c-0.1051,0.0281-0.2108,0.0558-0.316,0.0839c0.7084-0.7238,1.4163-1.4486,2.1241-2.173
				c-0.0223,0.1115-0.0446,0.2236-0.0664,0.3345c-0.5013-0.8496-1.0021-1.6993-1.5028-2.549
				c0.1004,0.0515,0.2008,0.1035,0.3017,0.1561c2.2223,1.1539,1.6616,5.117-1.1869,4.5902c-0.1088-0.0197-0.2177-0.0403-0.326-0.06
				c-1.0355-0.1917-2.0163-0.9649-2.1294-2.0811c-0.3107-3.0715,3.5138-4.782,5.3884-2.0923
				c0.6749,0.9676,0.9123,2.6292-0.0037,3.5733c-0.0813,0.0844-0.1636,0.1694-0.2459,0.2538
				c-0.8242,0.8502-2.258,1.5995-3.4581,0.9325c-0.1004-0.0563-0.2002-0.1115-0.3-0.1673
				C148.6537,431.4393,148.3866,428.567,150.7168,427.4507L150.7168,427.4507z"/>
		</g>
		<g>
			<path class="st0" d="M148.9792,437.7411c0.9771-2.395,4.7002-0.8805,3.7215,1.5187
				C151.7236,441.6543,148.0005,440.1393,148.9792,437.7411L148.9792,437.7411z"/>
		</g>
		<g>
			<path class="st0" d="M159.5234,437.8468c2.1825-5.348,10.4975-1.9653,8.3117,3.3917
				C165.6526,446.5871,157.3371,443.2044,159.5234,437.8468L159.5234,437.8468z"/>
		</g>
		<g>
			<path class="st0" d="M159.8203,449.7589c-0.0287-0.0526-0.0584-0.1062-0.0871-0.1599c-1.5665-2.8777,4.3757-4.7363,4.2982-0.6043
				c-0.0011,0.0568-0.0027,0.1147-0.0037,0.1726C163.982,451.6011,160.7432,451.455,159.8203,449.7589L159.8203,449.7589z"/>
		</g>
		<g>
			<path class="st0" d="M167.4315,449.1992c0.8613-2.1109,4.1442-0.7753,3.2813,1.3393
				C169.8509,452.6499,166.5686,451.3138,167.4315,449.1992L167.4315,449.1992z"/>
		</g>
		<g>
			<path class="st0" d="M167.1193,455.775c0.6755,2.1103-2.0031,3.9551-3.4852,2.0237
				C161.7644,455.3624,166.2378,453.0211,167.1193,455.775L167.1193,455.775z"/>
		</g>
		<g>
			<path class="st0" d="M166.994,466.0282c1.206-2.9557,5.8021-1.086,4.5934,1.8745
				C170.3814,470.859,165.7864,468.9893,166.994,466.0282L166.994,466.0282z"/>
		</g>
		<g>
			<path class="st0" d="M158.4173,456.9173c0.9538-2.3381,4.5897-0.8597,3.6339,1.4826
				C161.0968,460.7386,157.4614,459.2596,158.4173,456.9173L158.4173,456.9173z"/>
		</g>
		<g>
			<path class="st0" d="M156.0982,467.291c1.9526-4.7862,9.3934-1.7588,7.4377,3.0343
				C161.5833,475.1105,154.1424,472.0841,156.0982,467.291L156.0982,467.291z"/>
		</g>
		<g>
			<path class="st0" d="M151.7895,460.9181c0.701-1.7173,3.3704-0.6314,2.6684,1.0892
				C153.7569,463.7235,151.0874,462.6381,151.7895,460.9181L151.7895,460.9181z"/>
		</g>
		<g>
			<path class="st0" d="M147.8624,463.1702c-0.2969-0.2714-0.5932-0.5427-0.89-0.8136c-0.4912,0.1349-0.9835,0.2698-1.4747,0.4052
				c-0.086,0.1312-0.1715,0.2613-0.257,0.3919c0.0021,0.5496,0.0053,1.0992,0.0085,1.6494
				c0.3431,0.2958,0.6866,0.5921,1.0302,0.8884c0.5624-0.154,1.1242-0.3096,1.6866-0.4641
				c-0.1015,0.086-0.2029,0.1726-0.3043,0.2581c0.2464-0.9298,0.4928-1.8596,0.7402-2.7895c0.034,0.111,0.069,0.222,0.1041,0.3329
				c-0.6436-0.4848-1.2862-0.9691-1.9292-1.4545c0.1105,0.0292,0.222,0.0568,0.3325,0.085
				c-0.7392,0.3106-1.4784,0.6218-2.2182,0.9325c0.0637-0.0982,0.1264-0.1954,0.1901-0.2931
				c-0.1062,0.8183-0.2124,1.6372-0.3181,2.456c-0.0568-0.1004-0.1125-0.2013-0.1694-0.3016
				c0.6654,0.5018,1.3318,1.0031,1.9972,1.5049c0.5082-0.1811,1.0175-0.3632,1.5262-0.5443
				c0.1678-0.6399,0.3362-1.2787,0.5045-1.9175c-0.0977-0.197-0.196-0.3935-0.2931-0.5905
				c-0.5772-0.3287-1.1539-0.6569-1.7312-0.9856c0.1115,0.0207,0.222,0.0414,0.333,0.0611
				c2.6525,0.4854,3.0646,4.7904,0.0579,4.9991c-2.5378,0.1768-4.5244-2.3642-2.9149-4.6821
				c1.3663-1.9691,4.3662-1.6706,5.2259,0.5491c0.3048,0.7865,0.2607,1.7906-0.3186,2.4555
				c-0.0759,0.0876-0.1529,0.1758-0.2289,0.2628c-0.6696,0.7695-1.8581,1.2516-2.8506,0.7684
				c-1.0626-0.5167-1.7041-1.1651-1.8167-2.3896c-0.1041-1.138,0.4509-1.9893,1.4242-2.5107
				c2.5012-1.3398,5.4181,1.8204,3.4464,4.0613c-1.8129,2.0604-5.5456,0.051-4.2042-2.5617
				c0.3967-0.7743,1.3828-1.4274,2.2744-0.9559C147.3516,462.2552,147.753,462.5483,147.8624,463.1702L147.8624,463.1702z"/>
		</g>
		<g>
			<path class="st0" d="M134.9451,463.6932c1.3323-3.2648,6.409-1.1996,5.0745,2.071
				C138.6867,469.0302,133.61,466.9644,134.9451,463.6932L134.9451,463.6932z"/>
		</g>
		<g>
			<path class="st0" d="M139.6628,454.1288c0.5284-1.2947,2.5416-0.4763,2.0126,0.821
				C141.147,456.2444,139.1338,455.4256,139.6628,454.1288L139.6628,454.1288z"/>
		</g>
		<g>
			<path class="st0" d="M132.5936,455.3773c1.677-4.1096,8.0669-1.5108,6.3873,2.6063
				C137.3039,462.0938,130.914,459.4938,132.5936,455.3773L132.5936,455.3773z"/>
		</g>
	</g>
	<g>
		<g>
			<path class="st0" d="M335.5291,231.6767c0.0611-24.5263-24.5608-42.1465-46.0034-48.3745
				c-0.5199-0.1513-0.8226,0.5374-0.3239,0.7859c19.9531,9.967,45.0656,21.7538,45.9987,47.5875
				C335.2073,231.861,335.5281,231.8652,335.5291,231.6767L335.5291,231.6767z"/>
		</g>
		<g>
			<path class="st0" d="M322.6728,202.9632c-4.518-6.2927-9.6059-13.0565-11.7757-20.5669
				c-0.1109-0.3829-0.753-0.2947-0.7711,0.0972c-0.3499,7.5412,7.6411,15.5014,12.3189,20.6397
				C322.5672,203.2654,322.7812,203.114,322.6728,202.9632L322.6728,202.9632z"/>
		</g>
		<g>
			<path class="st0" d="M314.9426,191.9735c-0.4041-5.3098,0.3287-9.6776,2.2935-14.6231c0.1078-0.2708-0.2629-0.4923-0.4455-0.2581
				c-3.1591,4.0348-4.0672,10.1799-2.302,14.9985C314.5841,192.351,314.9617,192.2332,314.9426,191.9735L314.9426,191.9735z"/>
		</g>
		<g>
			<path class="st0" d="M312.9119,189.1192c-3.6254-5.1845-10.01-10.3153-16.2236-11.85c-0.3818-0.0945-0.625,0.5061-0.299,0.7153
				c2.8108,1.7975,5.8833,3.0779,8.6724,4.9423c2.7937,1.8671,5.1786,4.1479,7.7504,6.2906
				C312.8747,189.27,312.9565,189.1829,312.9119,189.1192L312.9119,189.1192z"/>
		</g>
		<g>
			<path class="st0" d="M306.3154,182.9087c-2.0137-3.6445-3.0343-6.9236-3.4146-11.0816
				c-0.0376-0.4063-0.6452-0.3951-0.7036-0.0016c-0.5905,3.9939,0.9803,8.4817,3.9727,11.1937
				C306.2368,183.0792,306.3611,182.9905,306.3154,182.9087L306.3154,182.9087z"/>
		</g>
		<g>
			<path class="st0" d="M304.0251,190.8541c-3.6806-5.6406-9.3834-11.3662-16.2199-12.7432
				c-0.2852-0.0574-0.3346,0.3319-0.1205,0.4524c6.2997,3.5659,11.7481,6.4404,16.1132,12.4607
				C303.9056,191.1732,304.1238,191.0054,304.0251,190.8541L304.0251,190.8541z"/>
		</g>
		<g>
			<path class="st0" d="M291.1486,172.2105c0.2888,3.7018,1.5469,6.8116,4.0359,9.5788c0.2007,0.223,0.5756-0.0473,0.3786-0.2825
				c-2.2511-2.6897-3.7475-5.8424-4.2738-9.3143C291.2761,172.1017,291.1417,172.1192,291.1486,172.2105L291.1486,172.2105z"/>
		</g>
		<g>
			<path class="st0" d="M294.2074,186.138c-4.1474-2.139-10.6451-1.2044-13.8988,2.2803c-0.1227,0.1306,0.0197,0.3781,0.1949,0.3409
				c1.856-0.3946,3.4581-1.497,5.2386-2.1348c2.7189-0.9739,5.6024-1.1603,8.3574-0.2236
				C294.2726,186.4598,294.3693,186.2218,294.2074,186.138L294.2074,186.138z"/>
		</g>
		<g>
			<path class="st0" d="M286.7309,186.0716c-3.3508-1.7551-6.3782-3.9621-9.6202-5.8844c-0.2581-0.1535-0.5177,0.1636-0.2894,0.3728
				c2.8155,2.5851,6.3017,4.3019,9.7832,5.8175C286.8026,186.4624,286.9167,186.1687,286.7309,186.0716L286.7309,186.0716z"/>
		</g>
		<g>
			<path class="st0" d="M309.5372,193.9335c-3.2271-1.078-6.7723-0.8831-10.1183-0.5316c-3.2239,0.3383-6.486,1.1778-8.453,3.9493
				c-0.2289,0.3223,0.1609,0.7403,0.4917,0.5008c4.7899-3.4549,12.1703-4.8138,17.9951-3.6009
				C309.6349,194.2883,309.7156,193.993,309.5372,193.9335L309.5372,193.9335z"/>
		</g>
		<g>
			<path class="st0" d="M299.2781,193.7816c-3.1687-0.9638-6.3214-2.0578-9.5724-2.712c-0.3123-0.0627-0.4493,0.4376-0.1455,0.5438
				c3.1315,1.0892,6.4032,1.7492,9.6212,2.5298C299.3875,194.1932,299.4837,193.8438,299.2781,193.7816L299.2781,193.7816z"/>
		</g>
		<g>
			<path class="st0" d="M319.8307,201.1147c-1.8586-2.2686-4.6253-2.524-7.3569-1.942c-3.6355,0.7753-7.3654,2.0264-10.5734,3.9084
				c-0.308,0.18-0.0164,0.651,0.2984,0.531c4.5499-1.7354,13.1728-6.7845,17.4046-2.3275
				C319.7261,201.4142,319.9486,201.2591,319.8307,201.1147L319.8307,201.1147z"/>
		</g>
		<g>
			<path class="st0" d="M310.2238,199.9199c-2.6536-0.7594-5.5063-1.6366-8.2863-1.4428c-0.3738,0.026-0.3176,0.5326-0.0016,0.6091
				c2.6605,0.6441,5.5058,0.6484,8.2151,1.1062C310.3061,200.2183,310.3805,199.965,310.2238,199.9199L310.2238,199.9199z"/>
		</g>
		<g>
			<path class="st0" d="M300.9743,193.7992c-2.0344,0.8247-3.2786,3.1554-4.33,4.9721c-1.232,2.1273-2.1496,4.4379-2.5925,6.8562
				c-0.0579,0.316,0.428,0.4434,0.5433,0.1444c0.6877-1.7816,1.3031-3.5829,2.1055-5.3178
				c0.9633-2.0806,2.2043-5.3422,4.3619-6.4356C301.1958,193.951,301.1176,193.7418,300.9743,193.7992L300.9743,193.7992z"/>
		</g>
		<g>
			<path class="st0" d="M319.9094,176.2336c-0.1264,0.41-0.2539,0.8204-0.3808,1.2299c-0.6112,0.3484-1.2214,0.6967-1.8321,1.0445
				c0.0977-0.0053,0.1949-0.0106,0.2926-0.0159c-0.907-0.5326-1.8135-1.0663-2.7194-1.5989
				c0.0282,0.1046,0.0569,0.2103,0.0844,0.316c0.274-0.976,0.5475-1.9516,0.821-2.9265c-0.0855,0.0749-0.1715,0.1503-0.2565,0.2252
				c0.9867,0.009,1.9723,0.0175,2.9589,0.0271c-0.0956-0.0611-0.1901-0.1216-0.2862-0.1832
				c-2.1103-1.3483-5.262,1.1184-3.3827,3.3227c0.0717,0.0839,0.1439,0.1678,0.2151,0.2522c0.684,0.8013,1.8438,1.2644,2.8665,0.804
				c2.8161-1.267,2.3859-5.4335-0.8805-5.7134c-1.1751-0.1004-2.7338,0.5247-3.0938,1.7901
				c-0.0319,0.1126-0.0648,0.2262-0.0966,0.3404c-0.3239,1.138-0.2565,2.7545,0.9208,3.4608
				c0.0988,0.0589,0.1965,0.1174,0.2953,0.1758C317.4862,180.0141,320.1074,178.8097,319.9094,176.2336L319.9094,176.2336z"/>
		</g>
		<g>
			<path class="st0" d="M311.8658,182.8822c1.5863-2.0434-1.5872-4.5111-3.1756-2.464
				C307.105,182.4611,310.278,184.9283,311.8658,182.8822L311.8658,182.8822z"/>
		</g>
		<g>
			<path class="st0" d="M306.5039,173.8026c3.5409-4.5637-3.5451-10.0748-7.0924-5.5036
				C295.8695,172.8626,302.9566,178.3742,306.5039,173.8026L306.5039,173.8026z"/>
		</g>
		<g>
			<path class="st0" d="M296.0378,179.5c0.0605-0.0016,0.1211-0.0027,0.1827-0.0048c3.2754-0.0813,1.9138-6.1573-1.6255-4.0247
				c-0.0489,0.0297-0.0988,0.0595-0.1477,0.0897C292.3625,176.8162,294.1075,179.5478,296.0378,179.5L296.0378,179.5z"/>
		</g>
		<g>
			<path class="st0" d="M292.7178,172.6279c1.3987-1.8013-1.3992-3.9769-2.7996-2.1725
				C288.5205,172.2573,291.3185,174.4324,292.7178,172.6279L292.7178,172.6279z"/>
		</g>
		<g>
			<path class="st0" d="M287.1791,176.1848c-2.1656,0.47-2.4247,3.713-0.0111,4.0305
				C290.2134,180.6168,290.0052,175.572,287.1791,176.1848L287.1791,176.1848z"/>
		</g>
		<g>
			<path class="st0" d="M278.3607,181.4192c1.9574-2.5224-1.9595-5.5679-3.9196-3.0418
				C272.4843,180.8993,276.4007,183.9453,278.3607,181.4192L278.3607,181.4192z"/>
		</g>
		<g>
			<path class="st0" d="M290.5395,184.2931c1.548-1.9951-1.5496-4.4049-3.1007-2.4061
				C285.8903,183.8826,288.9888,186.2914,290.5395,184.2931L290.5395,184.2931z"/>
		</g>
		<g>
			<path class="st0" d="M282.7141,191.4865c3.1687-4.0831-3.1724-9.0143-6.3459-4.9243
				C273.1997,190.6454,279.5407,195.5765,282.7141,191.4865L282.7141,191.4865z"/>
		</g>
		<g>
			<path class="st0" d="M290.3876,192.0335c1.137-1.4657-1.138-3.2345-2.2771-1.7673
				C286.9736,191.7313,289.2485,193.5007,290.3876,192.0335L290.3876,192.0335z"/>
		</g>
		<g>
			<path class="st0" d="M290.3993,196.56c0.3839,0.1216,0.7674,0.2432,1.1497,0.3643c0.1291,0.4933,0.2581,0.9872,0.3866,1.4805
				c-0.0706,0.1397-0.1407,0.2788-0.2113,0.4184c-0.4769,0.2724-0.9548,0.5443-1.4322,0.8167
				c-0.428-0.1497-0.856-0.299-1.2846-0.4477c-0.1471-0.5645-0.2942-1.129-0.4418-1.6929
				c-0.0234,0.1312-0.0478,0.2613-0.0712,0.3924c0.6824-0.6787,1.3642-1.3568,2.0471-2.0354
				c-0.1136,0.0255-0.2273,0.0504-0.3409,0.0759c0.7408,0.3149,1.4821,0.6298,2.2234,0.9442
				c-0.0802-0.0823-0.1599-0.1646-0.2395-0.2453c0.1009,0.795,0.2007,1.591,0.3011,2.387c0.0531-0.1046,0.1062-0.2076,0.1593-0.3117
				c-0.6558,0.5013-1.3117,1.0026-1.968,1.5034c0.1147-0.0011,0.2299-0.0021,0.3452-0.0042
				c-0.7674-0.3255-1.5342-0.6516-2.3015-0.9776c-0.0972-0.5305-0.1938-1.0621-0.2915-1.5931
				c0.47-0.4652,0.9394-0.9309,1.4088-1.3961c0.2193-0.0138,0.4387-0.0266,0.658-0.0409c0.5724,0.3356,1.1454,0.6712,1.7184,1.0069
				c-0.0727-0.086-0.1466-0.1721-0.2193-0.2581c-1.7455-2.0546-5.6799-0.2602-4.3582,2.4486
				c1.1157,2.2861,4.3093,2.7364,5.5121,0.1843c1.0222-2.1677-0.7355-4.6168-3.088-4.252
				c-0.8332,0.1296-1.6812,0.6696-1.9675,1.5034c-0.0377,0.1105-0.0754,0.2204-0.1131,0.3298
				c-0.3313,0.9654-0.1551,2.2351,0.7589,2.8532c0.9798,0.6617,1.8613,0.8937,2.978,0.3792c1.0377-0.479,1.498-1.3849,1.463-2.489
				c-0.0898-2.8357-4.2855-3.7826-5.2402-0.9553c-0.8783,2.6005,2.7279,4.8282,4.3199,2.3615
				c0.4721-0.7307,0.5454-1.9112-0.3085-2.4481C291.447,196.5452,290.993,196.3439,290.3993,196.56L290.3993,196.56z"/>
		</g>
		<g>
			<path class="st0" d="M296.4037,208.0096c2.1618-2.7863-2.165-6.1504-4.3306-3.3598
				C289.9107,207.4366,294.2376,210.8007,296.4037,208.0096L296.4037,208.0096z"/>
		</g>
		<g>
			<path class="st0" d="M302.3289,199.1424c0.8576-1.1051-0.8576-2.439-1.7163-1.3324
				C299.755,198.9146,301.4702,200.2491,302.3289,199.1424L302.3289,199.1424z"/>
		</g>
		<g>
			<path class="st0" d="M304.7818,205.8892c2.7205-3.5069-2.7247-7.7419-5.4505-4.2291
				C296.6102,205.167,302.056,209.402,304.7818,205.8892L304.7818,205.8892z"/>
		</g>
	</g>
	<g>
		<g>
			<path class="st0" d="M201.6418,391.5587c17.5528-17.1311,12.8914-47.0464,2.3233-66.7159
				c-0.256-0.4774-0.9596-0.2108-0.7881,0.3192c6.8567,21.2238,16.0255,47.4059-1.7641,66.1609
				C201.2855,391.4578,201.5069,391.6899,201.6418,391.5587L201.6418,391.5587z"/>
		</g>
		<g>
			<path class="st0" d="M213.1392,362.2738c1.3286-7.6315,2.5946-16,6.4372-22.8084c0.1954-0.3468-0.3165-0.744-0.6091-0.4822
				c-5.6295,5.0315-5.716,16.3096-6.1085,23.2476C212.8493,362.4103,213.1073,362.4565,213.1392,362.2738L213.1392,362.2738z"/>
		</g>
		<g>
			<path class="st0" d="M215.5724,349.0601c3.5069-4.0066,7.1387-6.5418,12.0449-8.6017c0.2687-0.1131,0.1673-0.5327-0.1274-0.4992
				c-5.0931,0.5703-10.1157,4.2244-12.3194,8.8587C215.0509,349.0686,215.4003,349.256,215.5724,349.0601L215.5724,349.0601z"/>
		</g>
		<g>
			<path class="st0" d="M216.1879,345.6116c1.1624-6.2179,0.3547-14.3692-2.9-19.8798c-0.2002-0.3394-0.7997-0.0919-0.7206,0.2873
				c0.685,3.2648,1.9229,6.3554,2.5447,9.6521c0.6229,3.302,0.6649,6.6018,0.9357,9.9378
				C216.054,345.6907,216.1735,345.688,216.1879,345.6116L216.1879,345.6116z"/>
		</g>
		<g>
			<path class="st0" d="M216.0025,336.5537c1.1911-3.9891,2.8182-7.0144,5.5201-10.1974c0.2639-0.3117-0.1699-0.7371-0.4907-0.5034
				c-3.2659,2.3753-5.3693,6.6385-5.21,10.6743C215.8252,336.6164,215.976,336.6435,216.0025,336.5537L216.0025,336.5537z"/>
		</g>
		<g>
			<path class="st0" d="M208.7263,340.4823c1.4492-6.5779,1.5442-14.6587-2.2596-20.5032
				c-0.1593-0.2437-0.4716-0.0064-0.4078,0.2305c1.8655,6.9948,3.6286,12.8972,2.3865,20.2292
				C208.4151,340.6204,208.6875,340.6586,208.7263,340.4823L208.7263,340.4823z"/>
		</g>
		<g>
			<path class="st0" d="M213.0202,318.2341c-2.4417,2.7991-3.7794,5.8743-4.013,9.5889c-0.0191,0.2995,0.437,0.3781,0.4668,0.0722
				c0.3441-3.49,1.5469-6.7664,3.6572-9.5729C213.1865,318.249,213.0797,318.1656,213.0202,318.2341L213.0202,318.2341z"/>
		</g>
		<g>
			<path class="st0" d="M205.2183,330.1707c-1.3764-4.4586-6.5933-8.4435-11.3599-8.3261
				c-0.1795,0.0042-0.2565,0.2788-0.1073,0.3776c1.5814,1.0488,3.4905,1.4216,5.1924,2.2457
				c2.5994,1.2591,4.7511,3.1873,6.0118,5.8095C205.0346,330.4426,205.2719,330.3449,205.2183,330.1707L205.2183,330.1707z"/>
		</g>
		<g>
			<path class="st0" d="M200.0312,324.7866c-1.0939-3.6211-1.6382-7.3283-2.5356-10.9887
				c-0.0717-0.2915-0.4796-0.2549-0.4695,0.0547c0.1259,3.8197,1.3419,7.511,2.6982,11.0577
				C199.8012,325.1115,200.0917,324.9873,200.0312,324.7866L200.0312,324.7866z"/>
		</g>
		<g>
			<path class="st0" d="M210.3879,346.5738c-1.4906-3.0593-4.1123-5.4537-6.7059-7.5959c-2.4996-2.0652-5.3826-3.8059-8.7387-3.2696
				c-0.3897,0.0627-0.4153,0.6335-0.0127,0.702c5.8206,0.9999,11.9583,5.3178,15.1716,10.3254
				C210.2021,346.8914,210.4697,346.7427,210.3879,346.5738L210.3879,346.5738z"/>
		</g>
		<g>
			<path class="st0" d="M203.3124,339.1431c-1.531-2.9372-2.9573-5.9539-4.7671-8.7328c-0.1736-0.2671-0.6266-0.0138-0.4896,0.2766
				c1.4153,2.9987,3.2351,5.7968,4.9307,8.6405C203.0947,339.5095,203.4117,339.3332,203.3124,339.1431L203.3124,339.1431z"/>
		</g>
		<g>
			<path class="st0" d="M212.468,358.9511c0.3186-2.9159-1.4364-5.0692-3.7645-6.6124c-3.0991-2.0525-6.6045-3.8394-10.1942-4.8117
				c-0.3441-0.0935-0.4763,0.4439-0.1699,0.5847c4.4251,2.0328,14.0677,4.654,13.8488,10.7964
				C212.1812,359.0855,212.4478,359.1365,212.468,358.9511L212.468,358.9511z"/>
		</g>
		<g>
			<path class="st0" d="M206.5947,351.2554c-1.3159-2.4258-2.687-5.0772-4.7724-6.9263c-0.2803-0.248-0.6027,0.1465-0.436,0.4259
				c1.403,2.3504,3.3928,4.3848,4.963,6.6395C206.4391,351.5236,206.6718,351.3993,206.5947,351.2554L206.5947,351.2554z"/>
		</g>
		<g>
			<path class="st0" d="M204.4871,340.3665c-2.0132-0.8752-4.5478-0.1312-6.5816,0.3898c-2.3806,0.6102-4.6731,1.5735-6.7096,2.9499
				c-0.2661,0.18-0.017,0.6165,0.2767,0.4896c1.7535-0.7573,3.4708-1.5788,5.2716-2.2202c2.1592-0.7695,5.3571-2.1677,7.6485-1.3929
				C204.5343,340.631,204.6289,340.4282,204.4871,340.3665L204.4871,340.3665z"/>
		</g>
		<g>
			<path class="st0" d="M230.2868,341.5842c-0.3819,0.197-0.7631,0.3935-1.145,0.59c-0.6771-0.1922-1.3525-0.3845-2.0285-0.5767
				c0.0728,0.0659,0.1439,0.1317,0.2167,0.1976c-0.2549-1.0201-0.5087-2.0408-0.7631-3.062
				c-0.0552,0.094-0.1099,0.1885-0.1657,0.2825c0.8879-0.488,1.7763-0.9755,2.6637-1.463c-0.1136-0.0085-0.2273-0.017-0.3409-0.026
				c0.685,0.7105,1.369,1.4205,2.053,2.1321c-0.0228-0.111-0.0462-0.222-0.0696-0.333c-0.5151-2.4502-4.4835-2.9732-4.7405-0.0881
				c-0.0101,0.1099-0.0196,0.2204-0.0297,0.3303c-0.0929,1.0488,0.3887,2.2011,1.4338,2.6095
				c2.8755,1.1231,5.5493-2.1018,3.4613-4.6295c-0.7509-0.9091-2.2882-1.5841-3.4432-0.9553
				c-0.1036,0.0563-0.2071,0.1126-0.3112,0.1694c-1.0392,0.565-2.1459,1.7455-1.8257,3.0805
				c0.0276,0.1121,0.0542,0.2231,0.0807,0.334C225.8909,342.5018,228.5864,343.5299,230.2868,341.5842L230.2868,341.5842z"/>
		</g>
		<g>
			<path class="st0" d="M219.9083,340.4972c2.5692-0.2979,2.1087-4.2913-0.4646-3.9923
				C216.875,336.8039,217.3349,340.7972,219.9083,340.4972L219.9083,340.4972z"/>
		</g>
		<g>
			<path class="st0" d="M222.6351,330.3114c5.7383-0.6675,4.7103-9.5851-1.0371-8.9171
				C215.8602,322.0618,216.8872,330.98,222.6351,330.3114L222.6351,330.3114z"/>
		</g>
		<g>
			<path class="st0" d="M211.2392,326.8294c0.0435,0.0425,0.0871,0.085,0.1312,0.1269c2.3519,2.2813,5.7363-2.9446,1.7354-3.9785
				c-0.0558-0.0143-0.112-0.0287-0.1678-0.043C210.5817,322.3263,209.8537,325.4854,211.2392,326.8294L211.2392,326.8294z"/>
		</g>
		<g>
			<path class="st0" d="M213.8205,319.6477c2.2654-0.2634,1.8592-3.7836-0.4089-3.5202
				C211.1462,316.3914,211.552,319.9117,213.8205,319.6477L213.8205,319.6477z"/>
		</g>
		<g>
			<path class="st0" d="M207.403,318.1837c-1.8517-1.2177-4.3481,0.8688-2.8857,2.814
				C206.3632,323.4531,209.8192,319.772,207.403,318.1837L207.403,318.1837z"/>
		</g>
		<g>
			<path class="st0" d="M197.4912,315.5535c3.1708-0.369,2.6031-5.2976-0.573-4.9285
				C193.7469,310.994,194.3151,315.9225,197.4912,315.5535L197.4912,315.5535z"/>
		</g>
		<g>
			<path class="st0" d="M203.9672,326.2602c2.5081-0.2916,2.0593-4.1904-0.453-3.8983
				C201.0051,322.6539,201.4543,326.5522,203.9672,326.2602L203.9672,326.2602z"/>
		</g>
		<g>
			<path class="st0" d="M193.3524,325.7111c5.1335-0.5974,4.2143-8.5772-0.9282-7.9793
				C187.2906,318.3292,188.2098,326.309,193.3524,325.7111L193.3524,325.7111z"/>
		</g>
		<g>
			<path class="st0" d="M198.3351,331.5716c1.8422-0.2145,1.5124-3.0773-0.333-2.8628
				C196.1605,328.9233,196.4897,331.7861,198.3351,331.5716L198.3351,331.5716z"/>
		</g>
		<g>
			<path class="st0" d="M195.1117,334.7498c0.1821,0.359,0.3632,0.718,0.5454,1.0759c-0.2623,0.4376-0.5246,0.8757-0.7865,1.3127
				c-0.1492,0.0478-0.2974,0.0951-0.4466,0.1423c-0.5289-0.1498-1.0573-0.3006-1.5867-0.4509
				c-0.1928-0.4099-0.3855-0.8204-0.5794-1.2304c0.2995-0.5008,0.5995-1.001,0.8996-1.5012
				c-0.1105,0.0749-0.2209,0.1492-0.3303,0.2241c0.9617,0.0122,1.9239,0.0244,2.8862,0.0356
				c-0.0977-0.0627-0.1954-0.1259-0.2926-0.1891c0.2942,0.7493,0.5884,1.4991,0.8826,2.2479
				c0.0027-0.1142,0.0058-0.2283,0.008-0.3425c-0.4971,0.6282-0.9957,1.2575-1.4933,1.8862
				c0.111-0.0345,0.2225-0.0696,0.3335-0.1041c-0.8173-0.1179-1.6345-0.2347-2.4518-0.3526
				c0.0823,0.0812,0.1636,0.1625,0.2449,0.2432c-0.3043-0.7753-0.6086-1.5512-0.9134-2.327
				c0.3111-0.4418,0.6229-0.8831,0.9341-1.3239c0.6611,0.0096,1.3217,0.0186,1.9829,0.0287
				c0.1631,0.1466,0.326,0.2937,0.4896,0.4402c0.1614,0.6442,0.3234,1.2883,0.4843,1.9319
				c0.0106-0.1126,0.0207-0.2246,0.0308-0.3367c0.2448-2.6855-3.7916-4.2377-4.8-1.3972c-0.8512,2.3971,1.0642,4.9928,3.7289,4.064
				c2.2627-0.7886,2.7805-3.7576,0.8725-5.1813c-0.6755-0.5045-1.6547-0.7323-2.4507-0.3521
				c-0.1051,0.0494-0.2103,0.1003-0.3144,0.1497c-0.9208,0.4391-1.7046,1.4545-1.5055,2.5405
				c0.2135,1.1619,0.6654,1.9536,1.8145,2.3907c1.0684,0.4057,2.0376,0.0999,2.8012-0.6978c1.9616-2.0503-0.3-5.7086-2.9876-4.4102
				c-2.4714,1.1932-1.5373,5.3284,1.3393,4.7379c0.8523-0.1752,1.746-0.9495,1.5315-1.9346
				C195.8557,335.4879,195.6815,335.0222,195.1117,334.7498L195.1117,334.7498z"/>
		</g>
		<g>
			<path class="st0" d="M191.1417,347.0539c3.5027-0.4073,2.8756-5.8525-0.633-5.4442
				C187.0049,342.0175,187.6326,347.4622,191.1417,347.0539L191.1417,347.0539z"/>
		</g>
		<g>
			<path class="st0" d="M201.6217,345.0752c1.3891-0.1614,1.1406-2.3206-0.2507-2.1592
				C199.9818,343.078,200.2303,345.2367,201.6217,345.0752L201.6217,345.0752z"/>
		</g>
		<g>
			<path class="st0" d="M198.522,351.5501c4.4092-0.5125,3.6201-7.366-0.7966-6.8524
				C193.3157,345.2106,194.1054,352.0636,198.522,351.5501L198.522,351.5501z"/>
		</g>
	</g>
	<g>
		<path class="st0" d="M308.234,329.2101c-2.1762-4.9955-5.6364-9.6346-9.805-13.1473
			c-12.6647-10.6738-27.9154-9.437-41.2943-17.3935c-9.745-5.7957-17.3589-15.1796-23.1817-24.9315
			c-6.2381-10.4454-11.1395-22.4861-13.7384-33.9224c0.9091,3.9987,7.0442,10.3769,9.8071,13.4436
			c3.5717,3.9642,7.5316,7.6272,11.7337,10.6939c8.7706,6.4,18.4369,8.5863,27.5213,13.7203
			C287.8227,288.1537,302.7293,308.6081,308.234,329.2101"/>
		<g>
			<g>
				<path class="st0" d="M307.4768,330.0958c-1.2129-17.9245-15.1668-28.388-21.1468-44.3365
					c-4.9333-13.1585-2.4157-27.5654-5.6465-41.0446c-4.202-17.5273-16.9697-31.0161-29.3762-43.3403
					c-5.9348-5.8945-11.9568-11.7029-17.9149-17.574c-3.362-3.3121-6.6645-6.6969-10.088-9.9457
					c-2.456-2.3323-1.6505-5.4404-0.3266-0.0186c3.1602,12.9455,1.3913,26.0185,2.8649,39.1919
					c1.7954,16.0473,6.6889,31.9741,15.8365,45.3795c18.0918,26.5118,54.9227,34.6313,67.6893,65.3357
					c0.3839,0.9235-0.9543,1.6526-1.4019,0.7243c-15.2694-31.5854-54.6604-38.8403-72.2742-69.011
					c-7.1095-12.1777-11.0901-25.8932-12.6174-39.8626c-1.6616-15.2035,3.3328-33.3293-4.9625-46.9264
					c-0.6181-1.0137,0.8592-1.8953,1.6356-1.1348c13.7782,13.4877,28.0933,26.6276,41.1657,40.8078
					c9.1274,9.9006,17.5098,20.9355,21.0629,34.1364c4.5297,16.8338,0.6431,34.3106,9.4848,50.162
					c6.8551,12.2897,17.2129,22.4669,16.3983,37.4713C307.8459,330.3608,307.4927,330.3369,307.4768,330.0958L307.4768,330.0958z"/>
			</g>
			<g>
				<path class="st0" d="M219.1638,168.0621c17.1359,17.0828,25.642,41.7095,30.3804,64.9295
					c6.4664,31.6862,26.3547,53.653,50.6569,73.9831c1.0499,0.8778,0.0616,2.6345-1.1778,1.8575
					c-20.4097-12.7963-41.5077-32.5624-48.7032-56.2933c-3.9498-13.0273-5.1919-26.6738-9.3738-39.6794
					c-5.1983-16.1647-12.9774-30.3719-22.1329-44.5542C218.6758,168.0924,218.9992,167.898,219.1638,168.0621L219.1638,168.0621z"/>
			</g>
			<g>
				<path class="st0" d="M220.9353,173.7925c17.7525,12.0646,31.2311,29.2,37.8207,49.7568
					c4.3709,13.6353,4.7336,28.0917,10.2968,41.4174c5.8801,14.0851,15.5402,25.5247,24.7053,37.5239
					c0.3154,0.4121-0.2251,0.9182-0.6021,0.5453c-16.0341-15.8407-27.3-35.8915-31.339-58.0733
					c-5.2981-29.0959-16.5932-53.1023-40.9841-71.0082C220.7346,173.8822,220.8323,173.7229,220.9353,173.7925L220.9353,173.7925z"
					/>
			</g>
			<g>
				<path class="st0" d="M223.8268,174.195c18.4752,13.9322,37.2308,30.9561,46.4527,52.6477
					c11.0779,26.0562,4.2339,57.2953,27.1682,77.9472c0.3994,0.359-0.1752,1.0408-0.6101,0.7249
					c-19.7789-14.3618-18.8506-40.3134-23.2024-61.9833c-6.1197-30.4686-28.6265-48.8338-50.0829-69.0099
					C223.3775,174.357,223.633,174.0484,223.8268,174.195L223.8268,174.195z"/>
			</g>
			<g>
				<path class="st0" d="M221.5842,174.6374c11.9886,12.7883,10.1279,30.2471,11.4209,46.4373
					c2.3637,29.5818,25.7471,48.6129,44.5521,69.0158c0.3425,0.3712-0.1503,0.9808-0.5799,0.6888
					c-17.2825-11.7279-35.3891-31.4425-42.7912-51.2692c-7.9703-21.3502,1.2904-45.0683-12.7437-64.7441
					C221.3729,174.6682,221.4977,174.545,221.5842,174.6374L221.5842,174.6374z"/>
			</g>
		</g>
	</g>
	<g>
		<path class="st0" d="M129.6905,421.3322c1.275-5.2976,1.3106-11.0853,0.103-16.4005c-3.67-16.1514-16.5842-24.358-22.4617-38.7708
			c-4.2823-10.4991-4.6996-22.5764-3.4671-33.8672c1.3202-12.0948,4.6683-24.6564,9.489-35.3477
			c-1.6855,3.7379-0.6356,12.526-0.2799,16.6389c0.4604,5.3151,1.412,10.6255,2.9154,15.6055
			c3.1395,10.3934,9.5342,17.9648,13.6869,27.5378C138.1557,376.2703,137.7176,401.5761,129.6905,421.3322"/>
		<g>
			<g>
				<path class="st0" d="M128.5525,421.5823c9.8385-15.0331,5.0124-31.7924,9.8555-48.1223
					c3.996-13.4734,14.69-23.4494,20.2377-36.1522c7.2141-16.5173,5.1585-34.9765,2.6886-52.2888
					c-1.181-8.2804-2.4842-16.5454-3.6987-24.8216c-0.6861-4.6694-1.2803-9.3611-2.053-14.0166
					c-0.5544-3.3418,1.9627-5.3353-0.2496-0.2113c-5.2827,12.234-14.5753,21.5971-21.3407,32.9958
					c-8.2411,13.8865-13.9386,29.544-14.7208,45.7538c-1.5479,32.0601,22.9438,60.7407,14.6194,92.9351
					c-0.2501,0.9681-1.7567,0.7434-1.5554-0.2676c6.8588-34.4057-20.1963-63.9402-16.0627-98.631
					c1.669-14.0018,6.7617-27.3445,13.9646-39.4112c7.8391-13.1314,22.7505-24.5831,24.3293-40.4324
					c0.1179-1.1815,1.8278-0.9946,1.9892,0.0807c2.8623,19.0673,6.3618,38.1808,8.2438,57.3755
					c1.3143,13.4012,1.3504,27.2596-3.773,39.9332c-6.5333,16.1625-20.1708,27.763-22.672,45.7406
					c-1.9388,13.938,0.189,28.3025-9.5055,39.7824C128.6868,422.0161,128.4202,421.7846,128.5525,421.5823L128.5525,421.5823z"/>
			</g>
			<g>
				<path class="st0" d="M155.7706,239.0634c3.3737,23.9597-4.6853,48.7361-14.9024,70.1187
					c-13.9423,29.1798-11.3163,58.6957-4.1824,89.5668c0.3085,1.3329-1.5389,2.1396-2.0593,0.7716
					c-8.5704-22.5132-13.4878-51.0026-4.9227-74.2746c4.7017-12.7745,11.9376-24.4116,16.4408-37.3094
					c5.5971-16.0309,7.9554-32.0553,9.1996-48.8907C155.3633,238.7931,155.7377,238.8329,155.7706,239.0634L155.7706,239.0634z"/>
			</g>
			<g>
				<path class="st0" d="M153.7293,244.7035c6.8913,20.3269,7.315,42.1242,0.1806,62.4989
					c-4.732,13.5137-13.158,25.2666-16.7525,39.2519c-3.799,14.7834-2.9875,29.7336-2.909,44.833
					c0.0032,0.5188-0.7334,0.5958-0.8093,0.0722c-3.2436-22.305-0.1444-45.0943,10.0041-65.2274
					c13.313-26.4083,18.7731-52.3716,10.1066-81.3618C153.5153,244.6541,153.6895,244.5856,153.7293,244.7035L153.7293,244.7035z"/>
			</g>
			<g>
				<path class="st0" d="M155.7945,246.7671c6.3411,22.2535,11.0428,47.1436,5.3247,70.0094
					c-6.8694,27.4677-31.1616,48.2667-25.3128,78.5696c0.102,0.5268-0.7679,0.7243-0.924,0.2103
					c-7.1228-23.3819,9.2623-43.5288,18.8533-63.442c13.4851-27.9987,6.5981-56.2195,1.6425-85.2516
					C155.3378,246.6253,155.7281,246.5335,155.7945,246.7671L155.7945,246.7671z"/>
			</g>
			<g>
				<path class="st0" d="M153.7378,245.7688c1.856,17.4301-10.1534,30.2381-18.8814,43.9356
					c-15.9469,25.0266-8.7626,54.3077-6.0591,81.922c0.0494,0.5034-0.7111,0.6925-0.8778,0.2007
					c-6.7187-19.7762-9.2814-46.4208-3.2346-66.7021c6.5115-21.8393,28.1985-35.1804,28.8627-59.3393
					C153.5503,245.6657,153.7245,245.6424,153.7378,245.7688L153.7378,245.7688z"/>
			</g>
		</g>
	</g>
	<g>
		<path class="st0" d="M334.2584,178.3073c8.9463-14.0235,10.3541-33.6442,6.6852-49.8688
			c-7.3416-32.4642-38.6662-54.4814-49.5784-85.926c0.1461,21.013,0.4546,42.7838,9.3579,61.8176
			c5.8748,12.56,15.1594,23.1594,22.631,34.8395C330.8258,150.8502,336.639,164.6481,334.2584,178.3073"/>
		<g>
			<path class="st0" d="M333.8129,174.8131c10.3504-10.6069,18.8437-23.6602,24.3479-37.4065
				c9.1736-22.9109,5.8457-46.604,0.8263-70.0752c-1.18-5.5206-2.4773-11.0099-3.9259-16.4652
				c-0.573-2.1586-1.5835-4.5101-1.8612-6.7186c-0.3935-3.1267,0.8804-1.0355,0.9165-1.301
				c-1.334,9.8342-3.9206,17.3005-8.5778,26.2479c-6.5588,12.5988-10.7513,24.332-10.6058,38.7654
				c0.1163,11.5611,1.8369,23.0192,1.779,34.599c-0.0048,0.8491-1.2649,0.9739-1.3361,0.1014
				c-1.3376-16.419-4.7341-33.4397-1.626-49.8598c3.5675-18.8453,19.3334-33.5704,17.9983-53.4947
				c-0.0791-1.1879,1.7253-1.6313,2.0896-0.4365c7.7733,25.5193,16.6474,56.1738,11.4018,82.965
				c-3.9918,20.3885-15.9342,39.3496-31.0591,53.3859C333.9605,175.3235,333.5946,175.0372,333.8129,174.8131L333.8129,174.8131z"/>
		</g>
		<g>
			<path class="st0" d="M353.2938,43.386c5.4739,24.9076-5.9258,47.356-2.8606,71.9067
				c2.4926,19.9626-0.3442,40.9682-14.7304,56.1318c-1.0238,1.0791-3.1182-0.0239-2.3206-1.4768
				c5.4803-9.9866,10.6409-19.7614,12.8255-31.0894c2.0572-10.6695,0.3765-21.1893,0.7923-31.9172
				c0.3494-9.0037,3.2414-17.1492,5.1431-25.8613c2.7395-12.5579,2.6594-24.9915,1.1046-37.6848
				C353.2439,43.3691,353.2885,43.3595,353.2938,43.386L353.2938,43.386z"/>
		</g>
		<g>
			<path class="st0" d="M356.514,50.923c-0.1099,11.7119,3.2664,22.6449,4.3109,34.2113
				c1.1444,12.6837-3.4368,24.7674-3.6301,37.4177c-0.2984,19.5001-5.8233,37.8738-20.9206,51.1237
				c-0.6096,0.5342-1.498-0.4609-0.9585-1.0509c8.8826-9.7153,15.8312-20.0253,18.669-33.1179
				c2.0456-9.4402,0.7854-19.0917,2.3838-28.5818c1.9372-11.4921,3.85-21.6019,2.0254-33.3117
				c-1.4035-9.0037-3.3519-17.5687-2.1161-26.703C356.2952,50.778,356.5156,50.786,356.514,50.923L356.514,50.923z"/>
		</g>
		<g>
			<path class="st0" d="M351.8988,48.7341c-0.3447,9.7668-1.0196,19.336-4.9832,28.397c-5.4665,12.4942-8.4764,22.57-7.1546,36.43
				c1.6595,17.4099,7.1137,35.0525,0.2215,51.9738c-0.1185,0.291-0.529,0.0828-0.4328-0.2023
				c6.6963-19.9722-0.985-39.4558-1.2214-59.6489c-0.0733-6.3347,0.6595-12.6821,2.8963-18.6409
				c4.9912-13.2976,9.6834-23.8498,10.627-38.3114C351.8537,48.7049,351.8998,48.707,351.8988,48.7341L351.8988,48.7341z"/>
		</g>
		<g>
			<path class="st0" d="M323.1699,52.6382c2.3811,25.2241,5.8732,49.4297,13.5424,73.6597c0.18,0.5671-0.6117,0.8194-0.8576,0.299
				c-10.7917-22.8573-11.825-49.1068-13.0666-73.93C322.7758,52.4211,323.1465,52.3918,323.1699,52.6382L323.1699,52.6382z"/>
		</g>
		<g>
			<path class="st0" d="M324.8076,49.5758c1.5756,1.1088,1.865,3.0896,0.2719,4.4182c-2.0254,1.6903-5.2779-0.043-5.244-2.6127
				c0.0451-3.4947,4.244-3.9721,6.4388-2.1464c2.2245,1.8485,2.7247,6.0198-0.8629,6.5992
				c-3.174,0.5124-7.5646-2.7316-6.0676-6.1387c1.5113-3.4384,5.9444-2.3599,7.7866,0.1662
				c2.1161,2.9026,0.4763,7.5327-3.5107,7.1859c-3.0199-0.2634-6.1276-3.3243-5.3592-6.4898
				c0.9145-3.7629,5.0862-3.8988,7.7961-2.0057c2.7603,1.9287,3.2552,6.3798-0.086,8.0584
				c-3.0704,1.5421-7.0659-0.9819-8.2825-3.8781c-1.5129-3.6041,0.9904-7.5497,4.9046-7.8471
				c8.7764-0.667,10.6467,14.4489,1.2129,14.3437c-4.1012-0.0462-7.2465-4.7841-6.8163-8.6224
				c0.4769-4.2509,4.6067-7.2449,8.7759-5.5812c4.2414,1.6924,6.6469,7.1711,3.7544,11.1156
				c-2.763,3.7693-8.333,3.8192-10.8039-0.2772c-2.4916-4.1309,1.1683-9.7466,6.0219-8.3229
				c3.2308,0.9479,4.7411,5.7713,1.4407,7.6607c-0.8714,0.4986-2.2744,0.3202-2.5686-0.8369
				c0.0542,0.0335,0.1073,0.0664,0.1614,0.0998c0.7472,0.0372,1.4949,0.0754,2.242,0.1131
				c-0.3818,0.1253-0.3871,0.0733-0.0175-0.1545c0.7934-0.5284,0.9718-1.3956,0.5337-2.6037
				c-0.5783-0.4886-1.1571-0.9782-1.7365-1.4672c-0.1561-0.0165-0.3123-0.0329-0.4689-0.0489
				c-0.7131,0.2533-1.4264,0.5061-2.1401,0.7589c-0.8263,2.789,0.4307,2.8325,3.7714,0.1317
				c0.0616,0.1301,0.1439,0.2469,0.2464,0.351c-0.6659-0.3117-1.3318-0.624-1.9977-0.9362
				c-0.3011,0.0547-0.6022,0.1094-0.9033,0.163c-0.4673,0.5539-0.9346,1.1067-1.4019,1.66c0.163,0.3547,0.1774,0.3914,0.0435,0.1083
				c0.1779,0.3908,0.5284,0.5746,1.052,0.5517c0.5799-0.4009,1.1603-0.8024,1.7402-1.2039c-0.2188-1.3223-0.0987-1.7758,0.36-1.3621
				c1.2633,0.9192,0.3367,2.0397-2.7799,3.363c-1.5644,0.6919,0.4455-3.2584,2.4284-3.0014
				c-0.7806,0.1678-1.5618,0.3367-2.3429,0.5045c-1.1025,1.591-0.8481,2.3063,0.7641,2.1443
				c0.5772-0.522,1.1555-1.0451,1.7338-1.5676c-0.0828,0.1747-0.1662,0.3494-0.2485,0.5236
				c-0.0834-0.9856-0.1662-1.9717-0.2496-2.9584c0.2368,0.5666,0.668,0.8629,1.2936,0.89
				c-0.8619,0.3112-1.7232,0.6218-2.5851,0.9336c0.0913-0.1243,0.1827-0.248,0.2735-0.3717
				c-0.2071,0.6463-0.4142,1.2925-0.6213,1.9388c0.0367,0.6043,0.47,0.6452,1.3005,0.1243
				c0.1843-0.5751,0.3686-1.1507,0.5534-1.7259c-0.0526-0.4758-0.1047-0.9521-0.1573-1.4279
				C324.2723,49.6761,324.6021,49.4313,324.8076,49.5758L324.8076,49.5758z"/>
		</g>
		<g>
			<path class="st0" d="M333.6042,67.1116c-3.4767,13.8212-2.1634,26.4795-0.3765,40.358c0.0743,0.5772-0.7775,0.7243-0.9745,0.2039
				c-4.8223-12.7326-3.0401-27.9993,1.1247-40.6336C333.421,66.9114,333.6371,66.9809,333.6042,67.1116L333.6042,67.1116z"/>
		</g>
		<g>
			<path class="st0" d="M334.9434,67.9671c0.0759,0.1752,0.1014,0.3648,0.1402,0.5517c0.2119,1.0148-1.0228,1.5448-1.8034,1.2469
				c-0.334-0.1083-0.6537-0.2491-0.9596-0.4201c-1.2973-0.6463-1.4694-2.4406-0.2767-3.2908
				c2.6515-1.8921,6.1366,1.318,3.8346,3.9281c-2.2054,2.5006-5.8764-0.6558-4.3062-3.3976
				c1.5703-2.7412,5.8393-1.1131,4.8802,1.9908c-1.104,3.576-5.6688,1.5883-5.7112-1.5294
				c-0.0191-1.3605,1.1985-2.8904,2.7295-2.4592c1.7636,0.497,2.9547,1.6037,3.0513,3.5069
				c0.1301,2.5458-3.3593,3.2276-4.3062,0.9001c-0.0478-0.0074-0.0956-0.0138-0.1429-0.0218
				c1.0987-0.7599,2.1969-1.5193,3.2951-2.2792c-0.0924-0.0887-0.1853-0.1779-0.2777-0.2666
				c-0.548-0.1758-1.0966-0.3521-1.6451-0.5278c0.1624-0.0064,0.3255-0.0133,0.4874-0.0197
				c-0.5257,0.2703-1.052,0.5406-1.5777,0.8109c0.0664-0.0876,0.1328-0.1752,0.1991-0.2618
				c-0.1747,0.5448-0.3494,1.0897-0.5236,1.634c-0.0027-0.1099-0.0048-0.2209-0.0074-0.3308
				c0.2687,0.5231,0.5374,1.0461,0.8066,1.5687c-0.0711-0.0738-0.1434-0.1482-0.2145-0.222c0.539,0.1731,1.078,0.3452,1.617,0.5183
				c-0.1248,0.0223-0.2496,0.0441-0.3744,0.0664c0.514-0.2645,1.0281-0.5289,1.5416-0.7934
				c-0.0388,0.0802-0.0781,0.1609-0.1174,0.2416c0.0276-0.548,0.0552-1.0961,0.0828-1.6435
				c0.0521,0.1216,0.1046,0.2432,0.1567,0.3643c-0.3749-0.4147-0.7504-0.8295-1.1258-1.2442
				c-0.0993-0.0234-0.1997-0.0462-0.2995-0.069c-0.5841,0.4046-1.1693,0.8093-1.7545,1.2134
				c0.0988-0.1758,0.197-0.3515,0.2953-0.5273c-0.026,0.522-0.052,1.0435-0.0786,1.5655c-0.0701-0.1928-0.1397-0.385-0.2098-0.5772
				c0.3553,0.3924,0.7105,0.7859,1.0658,1.1789c-0.1922-0.0669-0.3839-0.1343-0.5757-0.2013
				c0.5045,0.025,1.0085,0.051,1.5135,0.0765c-0.1997,0.0574-0.3994,0.1142-0.5985,0.1705c0.4238-0.6479,0.847-1.2947,1.2702-1.942
				C335.1261,68.4349,334.6917,67.3829,334.9434,67.9671L334.9434,67.9671z"/>
		</g>
	</g>
</g>
</svg>
