<?xml version="1.0" encoding="utf-8"?>
<!-- Generator: Adobe Illustrator 24.0.2, SVG Export Plug-In . SVG Version: 6.00 Build 0)  -->
<svg version="1.1" id="Layer_1" xmlns="http://www.w3.org/2000/svg" xmlns:xlink="http://www.w3.org/1999/xlink" x="0px" y="0px"
	 width="50" height="50" viewBox="0 0 512 512" style="enable-background:new 0 0 512 512;" xml:space="preserve">
<style type="text/css">
	.st0{fill:#335B66;}
</style>
<g>
	<g>
		<path class="st0" d="M378.248,495.9987c-26.7412-30.0607-55.28-58.2826-79.3337-90.6693
			c-20.8864-28.1224-38.3211-58.6026-53.0153-90.3811c-29.3295-63.4263-44.1355-131.0567-54.9328-199.7529
			c-0.3809-2.4227-4.3063-2.5042-4.4221,0.0904c-6.668,149.3078,83.5913,285.853,190.8531,381.5774
			C377.9121,497.3225,378.7078,496.5153,378.248,495.9987L378.248,495.9987z"/>
	</g>
	<g>
		<g>
			<path class="st0" d="M189.7791,116.8109c-13.1575-12.9912-16.5012-29.3519-16.0086-47.224
				c0.3185-11.5428,2.8514-22.1549,9.5046-31.6969c4.023-5.7701,11.945-18.0845,17.6021-12.9667
				c10.0896,9.1289,10.2981,37.103,8.339,48.7944c-2.6864,16.0315-10.1397,30.7363-20.808,42.8703
				c-0.832,0.9463,0.5535,2.0981,1.4917,1.4681c32.8603-22.0722,27.5205-71.68,11.3256-101.5675
				c-0.5766-1.0635-2.1877-1.8649-3.2443-0.8298c-17.0176,16.6768-28.2014,31.3088-28.6595,55.8885
				c-0.3321,17.8036,3.1414,36.4709,19.5233,46.2127C189.4339,118.1106,190.3684,117.393,189.7791,116.8109L189.7791,116.8109z"/>
		</g>
		<g>
			<path class="st0" d="M195.3229,38.4367c-6.9953,39.0698-11.7089,78.8831-6.2765,118.535
				c0.1351,0.9875,1.7337,1.0008,1.7832-0.0366c1.8928-39.6566,1.2473-78.8339,4.8507-118.4593
				C195.7018,38.2439,195.3633,38.2102,195.3229,38.4367L195.3229,38.4367z"/>
		</g>
		<g>
			<path class="st0" d="M185.0675,51.5243c-5.6516,19.7325-6.6551,42.3631,0.2189,61.9399c0.1927,0.5484,1.0414,0.281,0.9601-0.2743
				c-3.0789-21.1013-4.5463-40.4274-1.0407-61.631C185.2187,51.4807,185.0903,51.4457,185.0675,51.5243L185.0675,51.5243z"/>
		</g>
		<g>
			<path class="st0" d="M202.2587,64.7845c-2.2941,16.6103-5.504,32.4721-11.3811,48.223
				c-0.3779,1.0119,0.9337,1.7026,1.6148,0.9101c5.5081-6.4146,7.1033-14.4346,8.3053-22.6222
				c1.283-8.7386,2.6268-17.697,1.6038-26.5137C202.3917,64.6986,202.2695,64.7046,202.2587,64.7845L202.2587,64.7845z"/>
		</g>
	</g>
	<g>
		<g>
			<path class="st0" d="M224.916,193.486c-8.1916-16.7593-5.9939-33.1766,0.5468-49.947
				c3.6135-9.2648,8.2885-17.7177,16.0559-24.1197c4.18-3.4456,14.3483-11.705,20.0706-11.8853
				c12.1066-0.3818,0.9301,41.4825-2.185,48.0806c-7.4618,15.8047-20.4335,28.67-35.5224,37.1685
				c-0.9465,0.5327-0.6853,2.3414,0.5759,2.0117c38.4973-10.0604,49.7433-58.6133,44.3652-92.3546
				c-0.2089-1.3077-1.6807-2.2107-2.928-1.6251c-19.4689,9.1405-34.956,18.2489-43.5985,38.8373
				c-7.4181,17.6706-11.8393,38.6664,1.4737,54.5129C224.2438,194.7286,225.2631,194.1961,224.916,193.486L224.916,193.486z"/>
		</g>
		<g>
			<path class="st0" d="M256.0464,121.3485c-19.5249,34.6512-37.075,70.6066-45.0636,109.9248
				c-0.2059,1.013,1.3586,1.3479,1.7292,0.4305c14.8706-36.7933,27.1741-73.9796,43.6455-110.1804
				C256.4391,121.3427,256.1467,121.1703,256.0464,121.3485L256.0464,121.3485z"/>
		</g>
		<g>
			<path class="st0" d="M242.0258,130.3546c-11.883,16.8852-20.0656,37.618-20.2259,58.4494
				c-0.0048,0.643,0.8793,0.7556,1.0014,0.1102c3.9507-20.9179,9.1369-39.7167,19.3481-58.4894
				C242.1882,130.3533,242.0714,130.2893,242.0258,130.3546L242.0258,130.3546z"/>
		</g>
		<g>
			<path class="st0" d="M253.8795,148.5446c-7.5988,14.9931-15.9579,28.8981-26.6925,41.8119
				c-0.5687,0.6844,0.2962,1.899,1.1163,1.4233c13.4156-7.788,22.2995-28.8285,25.7148-43.2011
				C254.0381,148.4948,253.9139,148.4776,253.8795,148.5446L253.8795,148.5446z"/>
		</g>
	</g>
	<g>
		<g>
			<path class="st0" d="M289.4142,347.7076c-12.3102-14.0253-14.4979-30.4442-12.5894-48.3498
				c1.1263-10.5688,3.9475-20.4341,10.3197-29.0615c2.5197-3.4112,13.2519-17.0116,17.6929-15.9883
				c4.5577,1.0508,7.025,18.1256,7.6825,21.693c1.5833,8.5959,1.7583,17.4951,0.223,26.1102
				c-3.0661,17.2047-12.1754,33.0152-24.5074,45.178c-0.7672,0.7569-0.0677,2.4525,1.0672,1.8005
				c34.5129-19.8279,32.7367-69.5443,18.5748-100.7486c-0.5415-1.194-2.1833-1.7313-3.2437-0.8296
				c-17.2128,14.6349-29.6245,28.1155-32.159,51.3681c-2.0033,18.3817-0.3357,38.4435,16.0054,49.7772
				C289.0801,349.0727,289.9366,348.303,289.4142,347.7076L289.4142,347.7076z"/>
		</g>
		<g>
			<path class="st0" d="M300.5067,269.9231c-9.7406,38.559-17.2368,77.8606-14.6194,117.8944
				c0.0676,1.0356,1.6652,0.9525,1.7832-0.0366c4.6881-39.4056,6.7946-78.5174,13.1821-117.7721
				C300.8843,269.8126,300.5569,269.7245,300.5067,269.9231L300.5067,269.9231z"/>
		</g>
		<g>
			<path class="st0" d="M289.3423,282.2945c-7.0227,19.253-9.6277,41.7261-4.1686,61.7055c0.1685,0.618,1.045,0.5081,0.9958-0.1507
				c-1.5977-21.3638-1.6976-40.5786,3.3114-61.5207C289.4998,282.2492,289.3695,282.2191,289.3423,282.2945L289.3423,282.2945z"/>
		</g>
		<g>
			<path class="st0" d="M305.5573,296.7332c-3.4641,16.473-7.7903,32.0324-14.7783,47.3562
				c-0.3658,0.8015,0.7825,1.7532,1.4445,1.0828c10.8008-10.9409,14.1318-33.6565,13.4765-48.4417
				C305.6961,296.6432,305.5727,296.6593,305.5573,296.7332L305.5573,296.7332z"/>
		</g>
	</g>
	<g>
		<g>
			<path class="st0" d="M202.5602,280.53c3.3608-19.6146-9.816-34.8538-24.342-46.306
				c-18.4292-14.5293-36.6811-15.0383-59.1915-13.0078c-1.4106,0.1273-2.0881,1.7302-1.6257,2.9278
				c12.2741,31.7791,46.4755,68.0463,84.6499,57.3562c1.0248-0.287,1.271-2.1134-0.0428-2.0919
				c-14.8962,0.2418-29.4885-3.0106-42.7116-10.0211c-8.7699-4.6497-16.1108-10.8621-22.3869-18.5885
				c-3.0526-3.7581-15.4816-18.6249-13.7969-23.5831c1.5948-4.6953,16.0485-3.2022,19.8024-2.9309
				c10.9966,0.7946,19.7911,4.1965,28.7961,10.4742c15.8636,11.0589,28.043,25.926,29.5179,45.799
				C201.2874,281.3507,202.4376,281.2453,202.5602,280.53L202.5602,280.53z"/>
		</g>
		<g>
			<path class="st0" d="M137.772,234.2757c32.489,22.9465,61.8787,48.8459,93.2866,73.1093
				c0.7893,0.6098,1.9424-0.4969,1.2507-1.2711c-26.6946-29.8781-60.0153-52.0857-94.3203-72.1248
				C137.7946,233.8753,137.5782,234.1391,137.772,234.2757L137.772,234.2757z"/>
		</g>
		<g>
			<path class="st0" d="M154.5284,234.7907c18.42,11.0803,32.128,24.6739,46.2243,40.7436
				c0.3536,0.4028,1.1634,0.0113,0.8596-0.5098c-10.4622-17.94-28.3032-31.8561-47.0141-40.3582
				C154.5258,234.6333,154.4582,234.7487,154.5284,234.7907L154.5284,234.7907z"/>
		</g>
		<g>
			<path class="st0" d="M153.4421,256.4539c9.9998,10.7328,28.5022,24.3694,43.7825,24.3218
				c0.9797-0.0029,1.52-1.4087,0.4483-1.7985c-15.8165-5.7455-29.953-13.563-44.1307-22.6251
				C153.4784,256.3113,153.3826,256.3903,153.4421,256.4539L153.4421,256.4539z"/>
		</g>
	</g>
	<g>
		<g>
			<path class="st0" d="M316.0469,461.7545c-4.7755-18.5487-21.6992-27.1713-39.0564-31.8634
				c-23.6082-6.3813-40.4918,0.0378-61.146,11.6244c-1.034,0.5799-1.8949,2.1926-0.8296,3.2437
				c24.2668,23.9431,70.3845,43.4793,101.018,17.9276c0.8952-0.7473,0.0525-2.3225-1.0672-1.8005
				c-14.0057,6.5348-29.3972,9.6043-44.8674,8.1009c-8.3493-0.8113-54.573-16.4753-46.7975-26.8032
				c2.5638-3.4056,11.7369-6.1284,15.6766-7.5862c9.2371-3.4159,18.3701-4.1519,28.0575-2.5826
				c19.5605,3.1689,38.0483,12.1753,47.7314,30.1055C315.0993,462.7376,316.2511,462.5487,316.0469,461.7545L316.0469,461.7545z"/>
		</g>
		<g>
			<path class="st0" d="M238.0048,445.9345c39.0484,7.6535,76.5165,19.2538,115.1088,28.5863
				c1.0218,0.2473,1.3128-1.3355,0.4308-1.7298c-36.5432-16.3385-76.0378-22.9707-115.4998-27.2137
				C237.8114,445.5519,237.7803,445.8907,238.0048,445.9345L238.0048,445.9345z"/>
		</g>
		<g>
			<path class="st0" d="M253.4948,439.5505c21.3035,2.6306,39.5882,9.3613,58.8842,18.3008
				c0.515,0.2385,0.9529-0.5435,0.4901-0.8692c-17.0551-12.0059-38.6909-17.4156-59.3588-17.5747
				C253.4194,439.407,253.4006,439.539,253.4948,439.5505L253.4948,439.5505z"/>
		</g>
		<g>
			<path class="st0" d="M261.3606,459.7658c8.5507,3.6148,17.9716,4.8285,27.1183,6.0706
				c7.772,1.0556,15.6019,1.5566,22.8582-1.8123c0.9915-0.4608,0.5358-1.8618-0.5103-1.7837
				c-16.7521,1.2491-32.8476-0.154-49.4322-2.6132C261.313,459.6158,261.2866,459.735,261.3606,459.7658L261.3606,459.7658z"/>
		</g>
	</g>
	<g>
		<g>
			<path class="st0" d="M154.8127,160.7043c9.3129,5.7749,16.6696,12.6525,24.4009,20.3576
				c14.7523,14.7023,21.4495,27.9489,25.075,48.268c0.1597,0.8956,1.6667,1.2503,1.9315,0.2215
				c7.2839-28.262-29.6404-57.3293-51.0023-69.3827C154.8515,159.9619,154.4401,160.4727,154.8127,160.7043L154.8127,160.7043z"/>
		</g>
		<g>
			<path class="st0" d="M153.9299,140.2045c1.7099-13.5235-21.3183-13.0728-28.7104-8.3175
				c-11.2979,7.2683-13.0979,24.2258-4.2704,34.1152c9.2597,10.3747,28.9288,10.0383,36.3921-2.4129
				c8.2306-13.7317-7.8736-31.2618-22.386-26.1392c-7.1787,2.534-11.9947,10.4442-9.8915,17.9851
				c1.7782,6.3734,9.8398,11.4242,15.6945,6.6798c0.9153-0.7414,0.8258-2.0781-0.2318-2.6424
				c-4.2593-2.2752-10.1031-8.0428-4.247-12.4859c5.3061-4.0261,12.2362,1.0443,13.7596,6.3841
				c3.4294,12.0177-12.6195,15.4658-20.6643,11.3757c-8.6503-4.3989-10.7486-15.9951-5.8274-23.9512
				c5.3967-8.7252,25.1194-12.4975,29.9213-0.5535C153.5526,140.4498,153.8987,140.4522,153.9299,140.2045L153.9299,140.2045z"/>
		</g>
	</g>
	<g>
		<g>
			<path class="st0" d="M363.8557,381.1667c-8.6829,14.7155-14.7685,32.1625-17.3502,49.0622
				c-1.9585,12.8161-3.5853,33.836,5.9129,44.0182c0.8083,0.8669,2.0379,0.0773,1.7181-1.0186
				c-9.0348-30.9841-5.0625-63.2642,10.2987-91.7352C364.6132,381.1638,364.0477,380.8408,363.8557,381.1667L363.8557,381.1667z"/>
		</g>
		<g>
			<path class="st0" d="M355.007,363.2748c-8.206-10.8844,11.9995-21.9401,20.7773-21.4889
				c13.416,0.6899,23.408,14.509,20.6653,27.4779c-2.8773,13.6052-20.1115,23.0912-32.7771,15.9976
				c-13.9676-7.8225-8.7086-31.0395,6.4296-33.8088c7.489-1.3702,15.5995,3.0992,17.5233,10.6878
				c1.6259,6.4145-2.8586,14.8043-10.2967,13.5983c-1.163-0.1885-1.7495-1.3926-1.1129-2.4082
				c2.5646-4.0916,4.7677-12.0009-2.5215-12.945c-6.6057-0.856-10.0982,6.9891-8.7661,12.3796
				c2.9991,12.1319,18.6382,7.1461,23.5851-0.4023c5.3197-8.1172,1.3756-19.2216-6.8499-23.6786
				c-9.0201-4.888-28.0084,1.6431-26.2376,14.394C355.4571,363.301,355.1576,363.4742,355.007,363.2748L355.007,363.2748z"/>
		</g>
	</g>
	<g>
		<g>
			<path class="st0" d="M223.3186,360.7274c23.4974,4.0955,49.9792,16.8247,64.3922,36.2786
				c0.4867,0.6569,1.6706,0.1864,1.4926-0.6436c-2.3019-10.7337-16.0715-17.4519-24.8969-22.4048
				c-12.3887-6.9527-26.8347-11.9141-40.9269-13.7871C223.0206,360.123,222.9655,360.6654,223.3186,360.7274L223.3186,360.7274z"/>
		</g>
		<g>
			<path class="st0" d="M216.185,345.1431c-2.9065-10.9917-20.5723-3.4431-24.8018,2.5449
				c-6.4639,9.1524-2.5543,22.8283,7.3633,27.7158c10.404,5.1272,25.5089-1.2823,27.387-13.2443
				c2.0718-13.1909-15.8625-21.7121-25.4829-13.2137c-4.7588,4.2044-6.0098,11.8264-2.0256,16.9996
				c3.3676,4.3726,11.1808,5.758,14.2245,0.2593c0.476-0.86-0.0109-1.8654-1.0049-1.9713
				c-4.0055-0.4281-10.3274-3.0604-7.1882-8.3268c2.8439-4.7726,9.7885-3.0185,12.6362,0.6342
				c6.4088,8.2208-4.9235,15.9052-12.423,15.2573c-8.0647-0.6967-13.3124-9.0081-11.9941-16.6987
				c1.4452-8.4344,15.5169-17.5177,22.9645-9.7831C215.9698,345.4515,216.2381,345.3444,216.185,345.1431L216.185,345.1431z"/>
		</g>
	</g>
	<g>
		<g>
			<path class="st0" d="M250.5276,254.8923c-8.9782,14.9345-20.8938,44.0307-7.3077,59.2435
				c0.5272,0.5903,1.4756,0.0528,1.1922-0.7063c-7.3345-19.6527-3.4294-40.1002,6.5175-58.3107
				C251.054,254.8907,250.6625,254.6677,250.5276,254.8923L250.5276,254.8923z"/>
		</g>
		<g>
			<path class="st0" d="M244.4722,242.4379c-5.6424-7.5886,8.4258-15.1654,14.5136-14.812
				c9.3038,0.5405,16.1723,10.1736,14.2095,19.1585c-2.0592,9.4246-14.0587,15.9259-22.8126,10.9468
				c-9.6542-5.4915-5.8989-21.5738,4.6165-23.4255c5.2018-0.9158,10.8079,2.2224,12.1073,7.4962
				c1.0979,4.4569-2.0516,10.2569-7.2059,9.3859c-0.8065-0.1364-1.2072-0.9743-0.7613-1.676
				c1.7981-2.827,3.3631-8.3038-1.6893-8.992c-4.5786-0.6245-7.0376,4.8017-6.1386,8.5479
				c2.0244,8.4299,12.8971,5.0435,16.3644-0.1702c3.7273-5.6066,1.0423-13.3291-4.6429-16.4589
				c-6.2355-3.4328-19.4388,1.0104-18.2687,9.8646C244.7846,242.4577,244.5759,242.5773,244.4722,242.4379L244.4722,242.4379z"/>
		</g>
	</g>
</g>
</svg>
