<?xml version="1.0" encoding="utf-8"?>
<!-- Generator: Adobe Illustrator 24.0.2, SVG Export Plug-In . SVG Version: 6.00 Build 0)  -->
<svg version="1.1" id="Layer_1" xmlns="http://www.w3.org/2000/svg" xmlns:xlink="http://www.w3.org/1999/xlink" x="0px" y="0px"
	 width="50" height="50" viewBox="0 0 512 512" style="enable-background:new 0 0 512 512;" xml:space="preserve">
<style type="text/css">
	.st0{fill:#335B66;}
</style>
<g>
	<g>
		<g>
			<g>
				<path class="st0" d="M227.3393,425.9446c-0.3168,1.025-0.6513,2.0447-1.0047,3.0658l-8.2011,4.2149
					c0.3247-0.9276,3.3219-7.996,3.608-8.9223c17.3233-56.0397-28.8397-116.8091-29.3159-117.4258l4.6205-3.5734
					C199.0673,305.9221,245.538,367.0724,227.3393,425.9446z"/>
			</g>
		</g>
		<g>
			<g>
				<g>
					<g>
						<path class="st0" d="M134.7886,248.7771c-3.6929,3.5851-5.8493,8.5192-6.5013,13.5461
							c-0.6872,5.0426-0.2064,10.155,0.8786,15.0565c2.3485,9.7441,6.1603,19.1714,11.8907,27.1876
							c5.4835,8.0182,14.4809,14.0674,24.6503,14.9983c10.0871,1.0217,20.4871-3.0384,27.2379-10.3471
							c6.8123-7.2892,10.1668-17.1724,9.5919-26.7473c-0.5167-9.6454-5.3117-18.6364-12.6799-24.7581
							c-7.3832-6.3308-16.6916-10.5816-26.2854-13.3645c-4.842-1.3052-9.9296-1.9853-14.9879-1.4986
							C143.5424,243.3027,138.5331,245.2449,134.7886,248.7771z M134.3849,248.3564c7.7686-7.359,19.383-9.0007,29.8823-7.7863
							c10.6828,1.1974,21.0391,5.4097,29.6047,12.3846c8.7335,7.0076,14.055,18.1628,14.151,29.2996
							c0.3306,11.1499-4.612,22.2195-12.8621,29.2676c-8.158,7.1892-19.0146,10.6143-29.6014,9.9303
							c-5.2954-0.3103-10.6025-1.5554-15.5072-3.8804c-4.8845-2.3419-9.2999-5.8363-12.8262-10.0159
							c-6.952-8.4323-10.839-18.9813-11.6863-29.6524C124.6722,267.3775,126.7927,255.869,134.3849,248.3564z"/>
					</g>
				</g>
				<g>
					<g>
						<path class="st0" d="M185.4755,307.8336c-10.7723-2.8241-10.7194-18.1895-8.7603-19.0081
							c2.6797-1.1184,16.3009,4.5167,17.5957,9.7166c0.2691-4.0796,6.1734-12.1239,8.1521-11.8176
							c1.6737,0.2581,11.2878,19.6071-5.3633,24.9116c-6.5934,17.761-26.1384,6.8521-26.0163,4.8538
							C171.2565,313.6398,183.225,305.8647,185.4755,307.8336z"/>
					</g>
				</g>
			</g>
			<g>
				<g>
					<path class="st0" d="M146.7989,300.1747c6.7025,4.2652,13.5651,7.9607,21.0802,9.4815
						c7.4407,1.8625,15.1852,1.3314,22.976-0.2685c-7.0024,3.9255-15.6353,4.8054-23.6169,3.1128
						C159.3037,310.5623,151.9532,306.3011,146.7989,300.1747z"/>
				</g>
			</g>
			<g>
				<g>
					<path class="st0" d="M127.9274,260.7992c0.3587,2.2061,0.618,4.307,0.8016,6.4549c-0.0091,2.1695,0.2476,4.3808,1.1909,6.3661
						c1.7815,3.9875,3.4453,7.8758,4.9746,12.0429l-0.1261,0.0745c-2.9051-3.3663-4.8812-7.4982-5.6142-11.8881
						c-0.3109-2.2021-1.0197-4.2684-1.624-6.4301c-0.4116-2.1812-0.3763-4.469,0.2509-6.6287L127.9274,260.7992z"/>
				</g>
			</g>
			<g>
				<g>
					<path class="st0" d="M167.7406,254.273c10.4934,4.0594,19.1884,12.4826,24.4785,22.6036
						c2.4537,5.1562,4.1391,10.8279,4.0561,16.6165c-0.0509,5.7585-1.8781,11.5216-5.4201,15.8946
						c2.4935-5.0112,3.5668-10.4954,3.1762-15.843c-0.3717-5.3496-1.9115-10.596-4.4193-15.3648
						C184.851,268.458,177.0052,260.4268,167.7406,254.273z"/>
				</g>
			</g>
			<g>
				<g>
					<path class="st0" d="M134.5535,248.5014c1.5561-1.3536,3.5374-2.1937,5.5848-2.4321c2.0878-0.0529,4.0712,0.1568,6.1139,0.049
						c4.1306-0.0973,8.1227,1.4659,11.3649,3.8922l-0.0627,0.1313c-3.9516-0.9943-7.5655-2.2316-11.391-3.2298
						c-1.9226-0.5533-3.9706-0.2835-5.8173,0.3482l-5.7259,1.3712L134.5535,248.5014z"/>
				</g>
			</g>
			<g>
				<g>
					<path class="st0" d="M145.5923,262.7073c5.5175-0.0424,10.9265,1.8611,15.8502,4.3449
						c4.9504,2.5249,9.3744,5.9349,13.4965,9.6317c3.9411,3.8856,7.6164,8.1286,10.2876,13.0418
						c2.6,4.825,4.5141,10.6286,3.0357,16.0305c0.2273-5.5024-2.1205-10.4699-4.9661-14.8853
						c-2.9168-4.4193-6.4085-8.4866-10.3549-12.0632c-3.804-3.7314-8.077-6.9782-12.5989-9.8094
						C155.7996,266.2108,150.938,263.8676,145.5923,262.7073z"/>
				</g>
			</g>
			<g>
				<g>
					<path class="st0" d="M159.8662,290.722c2.1525,0.8224,4.1554,1.8069,6.0832,2.9632c1.8344,1.3203,3.7798,2.5183,5.9767,3.1076
						c4.3547,1.2693,8.4742,2.7189,12.7831,4.2501l-0.0229,0.1444c-2.2936,0.0163-4.601-0.2986-6.7972-0.9388
						c-2.2015-0.6324-4.2913-1.6024-6.2792-2.7221c-1.9474-1.2079-4.077-1.9709-6.2302-2.7738
						c-2.0558-0.9766-3.9692-2.2544-5.5952-3.9098L159.8662,290.722z"/>
				</g>
			</g>
		</g>
	</g>
	<g>
		<g>
			<g>
				<path class="st0" d="M292.8606,318.9385l-5.0896-1.1635c11.4034-50.0538-29.3107-118.1966-29.7262-118.8806l4.4749-2.6986
					C264.2475,199.0532,304.7454,266.8105,292.8606,318.9385z"/>
			</g>
		</g>
		<g>
			<g>
				<g>
					<g>
						<path class="st0" d="M209.8286,143.9137c-3.4982,2.9998-5.6991,7.2898-6.5581,11.7457
							c-0.893,4.4677-0.7454,9.0627-0.0477,13.503c1.5613,8.8367,4.4461,17.4709,9.1242,24.9508
							c4.4566,7.4681,12.1625,13.371,21.1985,14.7645c8.9569,1.4698,18.475-1.5835,24.911-7.7405
							c6.4902-6.1387,10.0341-14.7841,10.0485-23.3719c0.0712-8.6473-3.7164-16.9464-9.963-22.8244
							c-6.2472-6.0643-14.3307-10.3778-22.7493-13.3939c-4.2554-1.4333-8.7636-2.3237-13.3103-2.1675
							C217.9526,139.5048,213.3693,140.9642,209.8286,143.9137z M209.4902,143.5158c7.3486-6.1472,17.8172-6.973,27.1327-5.3071
							c9.4802,1.6599,18.5018,5.9957,25.7707,12.7027c7.4165,6.7437,11.5556,17.0058,11.0258,26.9635
							c-0.3201,9.9812-5.3489,19.5999-13.1097,25.4421c-7.687,5.9741-17.5774,8.4343-27.0008,7.2388
							c-9.422-1.0152-18.7539-5.931-24.551-13.9832c-5.7461-7.9195-8.6368-17.5604-8.804-27.1432
							C199.7604,159.9761,202.2905,149.8087,209.4902,143.5158z"/>
					</g>
				</g>
				<g>
					<g>
						<path class="st0" d="M251.8584,199.4856c-9.4704-3.118-8.5728-16.8458-6.7776-17.469
							c2.4556-0.8512,14.3163,4.9374,15.1858,9.6546c0.4664-3.6308,6.1871-10.4921,7.9378-10.1093
							c1.4816,0.3234,9.0039,18.1444-6.1688,21.9641c-6.873,15.5072-23.7351,4.6787-23.5163,2.9005
							C238.8316,203.8893,249.9554,197.6023,251.8584,199.4856z"/>
					</g>
				</g>
			</g>
			<g>
				<g>
					<path class="st0" d="M217.7207,190.5045c5.7533,4.1829,11.6817,7.8647,18.313,9.6376
						c6.5457,2.0761,13.4958,2.0291,20.5465,1.0302c-6.4745,3.1213-14.2379,3.4297-21.2762,1.4764
						C228.3212,200.4792,221.9878,196.265,217.7207,190.5045z"/>
				</g>
			</g>
			<g>
				<g>
					<path class="st0" d="M203.032,154.2784c0.1992,1.9911,0.3149,3.8817,0.3599,5.8121c-0.1633,1.9448,0.0385,3.9163,0.7127,5.754
						c1.3712,3.6615,2.6438,7.2284,3.7798,11.0363l-0.1163,0.0601c-2.4099-3.1696-3.9477-6.9697-4.3605-10.9337
						c-0.2143-1.9735-0.6402-3.8771-1.0955-5.8363c-0.2476-1.9722-0.0895-4.0143,0.5899-5.9094L203.032,154.2784z"/>
				</g>
			</g>
			<g>
				<g>
					<path class="st0" d="M238.9701,150.6449c9.1523,4.2083,16.4558,12.2148,20.6249,21.5506
						c1.9075,4.7434,3.1004,9.9055,2.7065,15.0728c-0.3639,5.1425-2.3152,10.1916-5.7213,13.9041
						c2.504-4.3403,3.7661-9.181,3.7125-13.9818c-0.0366-4.8015-1.1216-9.5743-3.0997-13.9747
						C253.4758,164.2655,246.9086,156.6562,238.9701,150.6449z"/>
				</g>
			</g>
			<g>
				<g>
					<path class="st0" d="M209.6326,143.6543c1.4653-1.123,3.2827-1.7658,5.1249-1.8644l5.4613,0.3815
						c3.6962,0.1411,7.1768,1.7586,9.9401,4.1058l-0.0634,0.1137c-3.476-1.1073-6.6365-2.4118-10.0002-3.5152
						c-1.6939-0.5416-3.5289-0.5082-5.2176-0.0105l-5.1928,0.9093L209.6326,143.6543z"/>
				</g>
			</g>
			<g>
				<g>
					<path class="st0" d="M218.7123,156.9581c4.9328,0.2672,9.6611,2.2668,13.923,4.759c4.2841,2.5281,8.0495,5.8206,11.5282,9.3521
						c3.3075,3.689,6.3576,7.685,8.4735,12.2226c2.0565,4.4553,3.446,9.7461,1.8265,14.4914
						c0.5076-4.9041-1.317-9.4724-3.6158-13.5749c-2.3615-4.1104-5.2581-7.9378-8.5859-11.3524
						c-3.1932-3.544-6.8325-6.6809-10.7162-9.4612C227.6405,160.6523,223.425,158.2907,218.7123,156.9581z"/>
				</g>
			</g>
			<g>
				<g>
					<path class="st0" d="M229.9191,182.7803c1.8781,0.8538,3.6139,1.8442,5.2725,2.9841c1.5495,1.3131,3.2663,2.4066,5.1686,3.1076
						c3.8216,1.3738,7.4224,2.8972,11.1885,4.5043l-0.0281,0.1274c-4.1228-0.2254-8.092-1.7122-11.4824-3.9941
						c-1.7024-1.1341-3.5185-2.0179-5.4136-2.8234c-1.7841-0.9858-3.4231-2.2335-4.7845-3.8026L229.9191,182.7803z"/>
				</g>
			</g>
		</g>
	</g>
	<g>
		<g>
			<g>
				<g>
					<g>
						<path class="st0" d="M263.4153,34.4656c-3.7589,1.347-6.8665,4.1384-8.9399,7.4792
							c-2.1035,3.3395-3.4055,7.1043-4.2123,10.9141c-1.4692,7.6354-1.8037,15.5157-0.3312,23.0159
							c1.2987,7.4224,5.7108,14.5822,12.593,18.5031c6.7953,3.9601,15.4432,4.4311,22.5553,1.4372
							c7.1506-2.9613,12.6923-8.8629,15.3596-15.8097c2.7313-6.9769,2.2315-14.8644-1.0067-21.5532
							c-3.1814-6.8403-8.3899-12.8301-14.2712-17.8746c-3.0011-2.4759-6.3752-4.5892-10.1034-5.8683
							C271.3531,33.4092,267.1931,33.1741,263.4153,34.4656z M263.2644,34.039c7.8483-2.7026,16.576-0.1346,23.6005,4.0934
							c7.1598,4.275,13.1215,10.5738,16.9307,18.2483c3.9183,7.753,4.0947,17.3377,0.588,25.233
							c-3.3454,7.9796-10.3889,14.2092-18.4776,16.5387c-8.0678,2.4589-16.834,1.3921-24.0905-2.4896
							c-7.3127-3.7341-13.3449-10.5979-15.5477-18.9075c-2.2015-8.1861-1.5613-16.883,1.266-24.6908
							C250.3003,44.3527,255.4918,36.9068,263.2644,34.039z"/>
					</g>
				</g>
				<g>
					<g>
						<path class="st0" d="M280.2512,92.4383c-6.7005-5.4515-1.7311-16.284-0.0849-16.2343
							c2.2505,0.0712,10.0609,8.4225,9.3064,12.51c1.4992-2.7947,8.2508-6.5797,9.5494-5.7278
							c1.0995,0.7192,1.6783,17.4683-11.7836,15.8691c-10.3569,10.4261-20.6569-3.5511-19.9292-4.923
							C268.3461,91.9751,279.2935,90.3263,280.2512,92.4383z"/>
					</g>
				</g>
			</g>
			<g>
				<g>
					<path class="st0" d="M255.3978,74.6152c3.3637,5.1641,7.0232,9.9767,11.8418,13.4625
						c4.6571,3.7034,10.2961,5.8147,16.312,7.1859c-6.2054,0.5246-12.5845-1.626-17.6767-5.3829
						C260.8937,85.9651,257.0708,80.5972,255.3978,74.6152z"/>
				</g>
			</g>
			<g>
				<g>
					<path class="st0" d="M254.7099,40.7526c-0.4547,1.6737-0.9453,3.2395-1.5058,4.8159c-0.733,1.5234-1.1798,3.1814-1.202,4.8773
						c-0.0222,3.3878-0.0954,6.6679-0.3534,10.1021l-0.1124,0.0118c-0.9701-3.3094-1.04-6.8619-0.1483-10.1975
						c0.4364-1.6632,0.6801-3.3362,0.9172-5.0622c0.4089-1.6724,1.1693-3.2761,2.3041-4.6003L254.7099,40.7526z"/>
				</g>
			</g>
			<g>
				<g>
					<path class="st0" d="M284.9201,48.9236c6.1068,6.2354,9.5423,14.9741,10.0296,23.82
						c0.0777,4.4278-0.5527,8.9746-2.4694,13.0353c-1.8847,4.0502-5.0243,7.5335-8.9288,9.4848
						c3.3689-2.7385,5.8866-6.2668,7.327-10.1681c1.4555-3.8974,2.0526-8.0966,1.8115-12.2696
						C292.449,64.4335,289.4865,56.2435,284.9201,48.9236z"/>
				</g>
			</g>
			<g>
				<g>
					<path class="st0" d="M263.3369,34.1958c1.5326-0.4566,3.2023-0.4142,4.7244,0.0751l4.3017,1.997
						c2.9482,1.2575,5.2653,3.6426,6.7763,6.3968l-0.0869,0.0719c-2.4713-1.9702-4.6258-4.0032-7.0069-5.9356
						c-1.2033-0.9636-2.6993-1.5038-4.2201-1.6221l-4.4834-0.8695L263.3369,34.1958z"/>
				</g>
			</g>
			<g>
				<g>
					<path class="st0" d="M266.5718,47.7706c3.9098,1.741,7.1187,4.8218,9.7977,8.156c2.6862,3.3715,4.7159,7.2003,6.4399,11.1343
						c1.5352,4.0078,2.7692,8.1848,3.0782,12.5113c0.2874,4.2417-0.2241,8.9543-3.0017,12.2945
						c1.9265-3.8125,1.8631-8.0744,1.2706-12.105c-0.6409-4.0568-1.8011-8.0502-3.4395-11.843
						c-1.4881-3.8562-3.4643-7.5197-5.7487-10.9709C272.6564,53.5207,269.9741,50.3059,266.5718,47.7706z"/>
				</g>
			</g>
			<g>
				<g>
					<path class="st0" d="M267.6595,72.1348c1.2556,1.2726,2.3544,2.6104,3.3441,4.045c0.8479,1.543,1.8997,2.958,3.2232,4.1136
						c2.6679,2.2936,5.1111,4.6401,7.6622,7.1049l-0.0621,0.0941c-3.2663-1.4568-6.0205-3.8869-8.0587-6.7829
						c-1.0269-1.4437-2.2231-2.7208-3.5087-3.9588c-1.1386-1.349-2.08-2.8665-2.6967-4.5565L267.6595,72.1348z"/>
				</g>
			</g>
		</g>
	</g>
	<g>
		<g>
			<g>
				<path class="st0" d="M343.0483,193.4978c-0.3123,0.3554-31.0994,35.9995-41.338,97.3424l-5.0256-0.8342
					c10.5666-63.0806,41.2419-98.3994,42.54-99.8732L343.0483,193.4978z"/>
			</g>
		</g>
		<g>
			<g>
				<g>
					<g>
						<path class="st0" d="M396.4835,145.3992c6.2393,6.9168,7.5164,17.0424,6.2426,26.1646
							c-1.2647,9.2489-5.1712,18.2418-11.6405,25.2415c-6.5327,7.1219-16.1245,10.8024-25.3558,10.7005
							c-9.2522,0.0725-18.5364-3.446-25.284-10.1093c-6.8351-6.5438-10.5927-16.4264-9.7539-26.1189
							c0.6343-9.6918,5.818-19.1413,13.7682-24.8123c7.8026-5.6501,17.0274-8.8054,26.3893-9.3208
							C380.0512,136.6056,390.0828,138.6085,396.4835,145.3992z M396.1105,145.7454c-3.0854-3.2605-7.3512-5.1987-11.7183-5.8415
							c-4.3801-0.6742-8.8433-0.3325-13.1241,0.5644c-8.4905,1.9493-16.8053,5.1908-23.547,10.3386
							c-6.7175,4.9668-11.3368,12.5584-12.2631,20.9313c-0.974,8.3076,1.4594,17.0796,7.0311,23.7632
							c5.5162,6.6966,14.3712,10.7449,23.2053,10.3543c8.8994-0.309,17.0332-5.1314,22.2038-11.8418
							c5.3849-6.6966,9.1699-14.7174,11.6961-23.0857c1.187-4.2142,1.8579-8.6421,1.5084-13.0666
							C400.7839,153.4526,399.1488,149.0503,396.1105,145.7454z"/>
					</g>
				</g>
				<g>
					<g>
						<path class="st0" d="M349.061,194.6632c9.5187-1.9265,10.2314-15.3073,8.5663-16.1174
							c-2.278-1.1053-14.4163,3.1285-15.8012,7.5909c-0.0327-3.5649-4.7767-10.8605-6.5137-10.6913
							c-1.4705,0.1418-10.7971,16.5145,3.4395,21.9549c4.8629,15.7914,22.4201,7.2571,22.4122,5.5109
							C361.1542,200.4218,351.1175,193.0601,349.061,194.6632z"/>
					</g>
				</g>
			</g>
			<g>
				<g>
					<path class="st0" d="M383.1144,189.9048c-4.7898,5.0804-11.4001,8.4271-18.4051,9.7232
						c-7.0324,1.0798-14.5064-0.113-20.4093-3.8765c6.7045,1.7775,13.4213,2.6222,19.9925,1.3686
						C370.9107,196.1677,377.0684,193.2881,383.1144,189.9048z"/>
				</g>
			</g>
			<g>
				<g>
					<path class="st0" d="M401.6194,156.5517c0.439,1.9121,0.3567,3.9059-0.1091,5.7847c-0.6663,1.8422-1.2974,3.6341-1.7311,5.5188
						c-0.8558,3.7863-2.7803,7.2859-5.4763,10.074l-0.1058-0.0705c1.5371-3.5531,3.1781-6.8573,4.9263-10.2412
						c0.8643-1.6998,1.2856-3.5838,1.3516-5.4835c0.2652-1.8618,0.5951-3.6779,1.0172-5.5808L401.6194,156.5517z"/>
				</g>
			</g>
			<g>
				<g>
					<path class="st0" d="M367.1473,148.9039c-8.3696,4.9001-15.598,11.5053-20.2231,19.7358
						c-2.4203,4.028-4.0196,8.5199-4.6068,13.16c-0.6043,4.6375,0.0594,9.4652,1.9827,13.9518
						c-2.8685-3.9836-4.175-9.0908-3.9346-14.1073c0.2136-5.0445,1.9611-9.9002,4.3521-14.268
						C349.8246,158.8251,357.8108,151.9214,367.1473,148.9039z"/>
				</g>
			</g>
			<g>
				<g>
					<path class="st0" d="M396.2646,145.6272l-4.9171-1.4764c-1.5763-0.6761-3.348-0.9191-5.0484-0.5899
						c-3.3806,0.6801-6.5875,1.5783-10.0779,2.2492l-0.049-0.1176c2.9436-1.9526,6.4974-3.1167,10.089-2.8273l5.3261,0.26
						c1.7704,0.307,3.4545,1.1373,4.7421,2.3923L396.2646,145.6272z"/>
				</g>
			</g>
			<g>
				<g>
					<path class="st0" d="M386.0162,157.3415c-4.712,0.7467-9.0608,2.5458-13.1541,4.7493
						c-4.0764,2.2427-7.9581,4.8577-11.4544,7.9189c-3.6119,2.9194-6.854,6.2883-9.6121,9.9923
						c-2.6954,3.704-4.9851,7.9137-5.0589,12.7158c-1.0204-4.7773,0.9322-9.7356,3.4349-13.8081
						c2.5686-4.1463,5.9787-7.6595,9.6017-10.8475c3.7719-3.0161,7.7921-5.767,12.2272-7.7196
						C376.4106,158.4227,381.2147,157.0325,386.0162,157.3415z"/>
				</g>
			</g>
			<g>
				<g>
					<path class="st0" d="M372.2695,181.1387c-1.4979,1.3607-3.2271,2.3792-5.0654,3.1272
						c-1.9265,0.5605-3.785,1.2072-5.5612,2.1087c-3.5427,1.8167-7.5531,2.7979-11.5667,2.5412l-0.0124-0.1267
						c3.8268-1.1204,7.4857-2.1793,11.3394-3.069c1.9212-0.4586,3.7079-1.3189,5.3581-2.4106
						c1.7351-0.9126,3.5276-1.6704,5.4424-2.2799L372.2695,181.1387z"/>
				</g>
			</g>
		</g>
	</g>
	<g>
		<g>
			<g>
				<path class="st0" d="M319.8254,369.3072c-0.4279,0.0144-44.4182,1.3993-112.4368,79.784l-3.851-3.3349
					c70.1666-80.8632,114.3142-82.5786,116.1565-82.6172l0.1182,6.1694l-0.0594-3.0847L319.8254,369.3072z"/>
			</g>
		</g>
		<g>
			<g>
				<g>
					<g>
						<path class="st0" d="M404.241,343.4575c3.3271,10.7815-0.4338,22.5573-6.4876,31.9297
							c-6.108,9.5174-14.9859,17.4056-25.6642,21.7949c-5.3679,2.1362-11.2218,3.1899-16.9392,2.9371
							c-5.7272-0.2796-11.291-1.7645-16.3773-4.1143c-10.2027-4.6402-18.6076-13.2411-22.6226-24.0029
							c-4.1718-10.6776-3.2591-23.4509,2.6059-33.6719c5.6409-10.3255,16.1566-18.0634,27.7834-20.2382
							c11.4557-2.2276,23.2007-0.9897,33.7484,3.2199C390.6727,325.4136,400.6729,332.7309,404.241,343.4575z M403.655,343.6469
							c-1.7279-5.1549-5.4254-9.4619-9.8957-12.3957c-4.4684-2.9743-9.5455-4.876-14.707-6.0741
							c-10.3229-2.1891-21.1116-2.8691-31.1438-0.6519c-9.9146,2.0303-18.8618,8.0143-24.1499,16.7412
							c-5.3091,8.631-7.1095,19.5098-4.3971,29.6949c2.6457,10.1713,10.3092,19.1361,20.214,23.2125
							c9.9349,4.2011,21.3311,3.0514,30.435-1.6841c9.3326-4.6107,17.582-11.4922,24.6261-19.3974
							c3.4538-4.0254,6.4497-8.5473,8.322-13.5873C404.857,354.4983,405.3078,348.828,403.655,343.6469z"/>
					</g>
				</g>
				<g>
					<g>
						<path class="st0" d="M327.0094,373.3921c11.4413,2.7398,19.0499-11.5987,17.6336-13.3377
							c-1.9395-2.3766-17.4356-3.9164-21.2331,0.2809c1.7828-3.934,0.2927-14.3692-1.7031-15.0702
							c-1.6874-0.5938-20.2865,12.6367-7.4198,25.8758c-2.7117,19.8305,20.9306,19.4105,21.8132,17.4879
							C337.3597,385.889,330.0869,372.6813,327.0094,373.3921z"/>
					</g>
				</g>
			</g>
			<g>
				<g>
					<path class="st0" d="M366.8513,385.5356c-7.8451,3.0651-16.8405,3.5636-25.1808,1.2948
						c-8.3298-2.2884-15.8508-7.5929-20.4472-14.6704c3.25,2.6862,6.5483,5.1543,10.1034,7.1232
						c3.5629,1.9409,7.2754,3.5361,11.1649,4.5768C350.2636,386.07,358.4732,386.2411,366.8513,385.5356z"/>
				</g>
			</g>
			<g>
				<g>
					<path class="st0" d="M404.1946,358.3304c-0.4926,2.3243-1.5992,4.4722-3.0697,6.2981
						c-1.641,1.7142-3.3317,3.2846-4.7179,5.1804c-2.9051,3.6753-6.7149,6.6692-11.1552,8.2756l-0.0797-0.132
						c3.4453-3.201,7.0226-5.8624,10.6358-8.7381c1.8683-1.379,3.2095-3.3107,4.2821-5.3352
						c1.2419-1.9108,2.5301-3.7373,3.964-5.6135L404.1946,358.3304z"/>
				</g>
			</g>
			<g>
				<g>
					<path class="st0" d="M370.2222,332.3435c-11.7274,1.0485-22.9538,4.7943-32.2857,11.3681
						c-4.6578,3.2578-8.7315,7.327-11.7751,12.1083c-3.0292,4.7871-4.7623,10.43-4.938,16.3401
						c-1.119-5.8389,0.0509-12.1174,2.8737-17.5069c2.7764-5.4495,7.148-9.9434,12.0593-13.4566
						c4.9681-3.4643,10.5254-6.0355,16.3434-7.5106C358.3008,332.1847,364.3448,331.5981,370.2222,332.3435z"/>
				</g>
			</g>
			<g>
				<g>
					<path class="st0" d="M403.8843,343.596l-4.6499-4.1299c-1.4045-1.5097-3.1781-2.7823-5.2451-3.2239
						c-4.0548-1.0374-8.0535-1.5273-12.2193-2.6693l0.0059-0.1541c4.2404-0.7421,8.7218-0.051,12.5264,2.0395
						c1.8488,1.1184,3.8007,1.9114,5.7194,3.0011c1.7886,1.2419,3.2154,3.0128,3.9895,5.0491L403.8843,343.596z"/>
				</g>
			</g>
			<g>
				<g>
					<path class="st0" d="M386.6492,351.2385c-5.5573-1.5835-11.2538-1.8252-16.8745-1.4921
						c-5.6233,0.4129-11.2029,1.3673-16.6243,2.858c-5.4306,1.4476-10.7201,3.4414-15.6575,6.0754
						c-4.8511,2.6947-9.5135,6.1505-12.0436,11.389c1.315-5.7683,5.9891-10.2197,10.8161-13.4181
						c4.9191-3.2742,10.449-5.4482,16.0827-7.0213c5.6632-1.477,11.5034-2.3883,17.3716-2.2433
						C375.5437,347.526,381.5309,348.4491,386.6492,351.2385z"/>
				</g>
			</g>
			<g>
				<g>
					<path class="st0" d="M359.4067,370.3714c-2.3393,0.7317-4.7584,0.9681-7.1598,0.8525
						c-2.4053-0.324-4.7695-0.6748-7.1859-0.5207c-4.8035,0.132-9.7513-0.6826-14.0047-3.1069l0.051-0.1463
						c4.8015,0.6258,9.3214,1.4823,14.0249,2.4125c2.34,0.5468,4.7486,0.4005,7.1167,0.0843
						c2.3707-0.1163,4.7277-0.0346,7.1422,0.2718L359.4067,370.3714z"/>
				</g>
			</g>
		</g>
	</g>
	<g>
		<path class="st0" d="M164.7043,483.1628c-1.0629,0-2.1087-0.5115-2.7489-1.46c-1.0178-1.5143-0.6173-3.5675,0.8956-4.5853
			c89.5333-60.2722,143.1252-160.6033,143.3643-268.3882c0.0947-41.6476-7.6007-82.2128-22.8754-120.5719
			c-0.6735-1.6946,0.1555-3.6171,1.8474-4.2906c1.6861-0.6951,3.6171,0.1476,4.2959,1.8481
			c15.581,39.143,23.4378,80.5352,23.3431,123.0314c-0.245,109.9799-54.9272,212.3557-146.2798,273.8521
			C165.9788,482.9793,165.3386,483.1628,164.7043,483.1628z"/>
	</g>
</g>
</svg>
